<svg height="480pt" viewBox="-8 0 480 480" width="480pt" xmlns="http://www.w3.org/2000/svg"><path d="m424 0h-384c-4.417969 0-8 3.582031-8 8v40h-16c-8.835938 0-16 7.164062-16 16v32c0 8.835938 7.164062 16 16 16h16v32h-16c-8.835938 0-16 7.164062-16 16v32c0 8.835938 7.164062 16 16 16h16v64h-16c-8.835938 0-16 7.164062-16 16v32c0 8.835938 7.164062 16 16 16h16v32h-16c-8.835938 0-16 7.164062-16 16v32c0 8.835938 7.164062 16 16 16h16v40c0 4.417969 3.582031 8 8 8h384c22.082031-.027344 39.972656-17.917969 40-40v-400c-.027344-22.082031-17.917969-39.9726562-40-40zm-408 96v-32h16v32zm0 96v-32h16v32zm0 128v-32h16v32zm0 96v-32h16v32zm32-400h16v448h-16zm400 424c0 13.253906-10.746094 24-24 24h-344v-448h344c13.253906 0 24 10.746094 24 24zm0 0"/><path d="m360 56c-44.164062.046875-79.953125 35.835938-80 80v96c0 4.417969 3.582031 8 8 8h24c4.417969 0 8 3.582031 8 8v120c0 4.417969 3.582031 8 8 8h32c4.417969 0 8-3.582031 8-8v-304c0-4.417969-3.582031-8-8-8zm-8 304h-16v-112c0-13.253906-10.746094-24-24-24h-16v-88c.042969-32.238281 24.019531-59.429688 56-63.503906zm0 0"/><path d="m176 223.832031v144.167969c0 4.417969 3.582031 8 8 8h32c4.417969 0 8-3.582031 8-8v-144.167969c10.023438-7.519531 15.949219-19.300781 16-31.832031v-128h-16v56h-16v-56h-16v56h-16v-56h-16v128c.050781 12.53125 5.976562 24.3125 16 31.832031zm48-31.832031c.007812 8.613281-4.65625 16.550781-12.183594 20.734375-2.894531 1.671875-4.421875 4.988281-3.816406 8.273437v138.992188h-16v-138.464844c.824219-3.453125-.730469-7.039062-3.816406-8.800781-7.527344-4.183594-12.191406-12.121094-12.183594-20.734375v-56h48zm0 0"/><path d="m168 416h192v16h-192zm0 0"/></svg>