<svg id="Layer_1" data-name="Layer 1" xmlns="http://www.w3.org/2000/svg" viewBox="0 0 90.08467 30"><defs><style>.cls-1{fill:#f68d2d;}.cls-2{fill:#2b2724;}.cls-3{fill:#e32c28;}.cls-4{fill:#f58d2d;}.cls-5{fill:#e32b28;}.cls-6{fill:#fefdfb;}.cls-7{fill:#fbfafa;}.cls-8{fill:#e22927;}.cls-9{fill:#f7e202;}.cls-10{fill:#f8e303;}.cls-11{fill:#f9f8f8;}.cls-12{fill:#fbf9f8;}.cls-13{fill:#303030;}.cls-14{fill:#b6b2b2;}.cls-15{fill:#b7b3b3;}.cls-16{fill:#f38c2b;}.cls-17{fill:#b4b0b0;}.cls-18{fill:#ed892a;}.cls-19{fill:#2e2d2d;}.cls-20{fill:#36341f;}.cls-21{fill:#282727;}.cls-22{fill:#b2aead;}.cls-23{fill:#f5f4f3;}</style></defs><title>logo</title><path class="cls-1" d="M11.54208,26.23318a6.49534,6.49534,0,0,0-.59491-.73006,1.91289,1.91289,0,0,0-1.736-.42124,5.31749,5.31749,0,0,0-1.71478.68012c-.1752.10172-.351.20239-.48431.27923,0-.52157.033-1.04414-.01023-1.56021a4.83959,4.83959,0,0,0-.2588-1.273,1.48889,1.48889,0,0,0-1.71047-.98156,7.90982,7.90982,0,0,0-2.8168,1.02474c-.12689.06843-.25757.12983-.3865.19448a.285.285,0,0,0-.05075-.04511c.33285-.64649.6935-1.28066.98737-1.94442a4.60843,4.60843,0,0,0,.29346-1.15661A1.31091,1.31091,0,0,0,2.4716,19.0074a4.53259,4.53259,0,0,0-1.87317-.75726c-.11852-.02475-.23707-.04934-.43469-.09047.17306-.11526.29533-.196.417-.27779a7.46421,7.46421,0,0,0,1.84821-1.63431,1.30722,1.30722,0,0,0,.08907-1.59A4.74352,4.74352,0,0,0,.85953,13.10193C.60378,12.94169.335,12.80223,0,12.61245c.173-.05771.28966-.09608.40592-.13546a7.73587,7.73587,0,0,0,2.16222-1.02376A1.18659,1.18659,0,0,0,3.0618,9.84939q-.01987-.03754-.04239-.07359A8.00509,8.00509,0,0,0,1.73876,7.83673c-.0917-.11048-.18618-.21867-.33978-.39872.20979.01743.34356.02758.47712.03982A6.37407,6.37407,0,0,0,4.12,7.36508a2.6967,2.6967,0,0,0,.57335-.22477,1.02016,1.02016,0,0,0,.63056-1.124c-.12633-.67723-.30521-1.3449-.47082-2.01438-.04556-.184-.1244-.35963-.20158-.57756.49191.2945.92792.5941,1.398.82408a3.82429,3.82429,0,0,0,1.09953.34949,1.18977,1.18977,0,0,0,1.40005-.78626A5.61669,5.61669,0,0,0,8.9796,1.721c.014-.23017.0022-.46178.0022-.7735l1.0061.98941a3.09286,3.09286,0,0,0-.91458,2.33078,7.14728,7.14728,0,0,0,.42762,2.12276A8.42477,8.42477,0,0,0,7.4027,7.88966,9.5491,9.5491,0,0,0,4.79342,17.379a9.339,9.339,0,0,0,2.68928,4.3861,8.5562,8.5562,0,0,0,2.94541,1.8417,6.0701,6.0701,0,0,0,.15063.59962.75566.75566,0,0,0,1.35775.31521,2.59777,2.59777,0,0,0,.23574-.31913l.046.05634Z" transform="translate(0 0.00001)"/><path class="cls-2" d="M11.54208,26.23318l.67611-1.97439-.046-.05635a2.59777,2.59777,0,0,1-.23574.31913.75565.75565,0,0,1-1.35774-.31521,6.06944,6.06944,0,0,1-.15064-.59962c-.02225-.16736-.05591-.33417-.06414-.50221a1.07866,1.07866,0,0,0-.27773-.67979,11.43348,11.43348,0,0,1-.83083-1.18755c-.1551-.24121-.27319-.50622-.40792-.76052-.02723-.11681-.04667-.23608-.08286-.35a8.09461,8.09461,0,0,1-.26875-3.60474,15.7718,15.7718,0,0,1,1.92221-5.46166c.37273-.67576.7797-1.33265,1.17346-2.00219-.21676-.15891-.442-.3044-.64361-.47736-.2014-.17269-.37908-.37289-.56717-.561L9.50094,6.39051a7.14729,7.14729,0,0,1-.42762-2.12286A3.09286,3.09286,0,0,1,9.9879,1.93691,4.6274,4.6274,0,0,1,12.731.89681a7.07009,7.07009,0,0,1,1.39469.1859,4.18265,4.18265,0,0,1,1.62873,1.41408c.35449.548.66934,1.12365.97235,1.70246A4.63662,4.63662,0,0,0,17.7684,5.587c.14745.12827.29291.29915.598.20841-.04378-.36931-.0835-.73869-.13228-1.10688a.9669.9669,0,0,1,.53866-1.01527c.34157-.12946.623-.00618.91827.39813a.51373.51373,0,0,0,.10145.08281l-.00209-.00275a3.03686,3.03686,0,0,1-.25387,2.24626,5.30941,5.30941,0,0,1,.43779.56289c.14985.25765.26155.53743.38961.80772.05526.27145.11839.54157.16448.81456a22.49234,22.49234,0,0,0,1.30405,4.86639c.48351,1.17379.90721,2.3722,1.35754,3.55965.05115.187.10493.37329.15307.561A4.02523,4.02523,0,0,1,21.5418,22.1751a13.04957,13.04957,0,0,1-1.43407.68154l.08307.80826a8.65911,8.65911,0,0,1-.32671,2.76893,2.98194,2.98194,0,0,1-2.1691,2.146,1.34079,1.34079,0,0,1-.46652.06194,1.02855,1.02855,0,0,0-.92384.42231,3.03978,3.03978,0,0,1-2.94606.84128,2.561,2.561,0,0,1-1.89221-2.47366C11.46335,27.03244,11.51527,26.63272,11.54208,26.23318ZM20.736,19.855l-.0016.00247.09506-.15092a3.8117,3.8117,0,0,0,.24172-.48529,1.48386,1.48386,0,0,0-2.46392-1.5888,3.43568,3.43568,0,0,1-1.24119.79654,1.8467,1.8467,0,0,1-2.06939-.45179,3.90109,3.90109,0,0,0-.39844-.29893.63317.63317,0,0,0-.769.10315,3.23523,3.23523,0,0,1-.73187.44852,3.92289,3.92289,0,0,0-2.19057,2.03113,5.50325,5.50325,0,0,0-.17159,3.81467.55218.55218,0,0,0,.06149.1315c.10733.19093.23856.233.40151.06088q.28784-.30408.57542-.60841a10.64045,10.64045,0,0,1,2.67509-1.57454c.572-.22787,1.15235-.4403,1.70578-.7076.41925-.2025.8019-.48072,1.20083-.72527l.30992-.208-.00078.00086a3.306,3.306,0,0,0,1.13785-1.22434c.21151-.345.098-.50026-.33171-.55062.39418-.42621.87751-.37344,1.09194.13667a1.89554,1.89554,0,0,1,.13983.63288.86881.86881,0,0,1-.65028.93468c-.23911.08315-.48671.142-.73042.21181-.15464.01-.33975-.03136-.45871.039-.481.28451-.9416.60346-1.43585.92677a1.94288,1.94288,0,0,0,1.39307.30256,3.80777,3.80777,0,0,0,2.15955-1.32168,5.11289,5.11289,0,0,0,.39019-.59911l-.00223.00159Zm-7.96378-1.60195c.20989-.08436.4216-.1645.629-.25447a1.67543,1.67543,0,0,0,.44457-.223c.5547-.48454.71834-.51758,1.3418-.209l.79575.61683.08655.04022.13814.03566a1.09606,1.09606,0,0,0,.90343.02615,2.9744,2.9744,0,0,0,1.32541-.78344,1.63724,1.63724,0,0,1,2.19592-.30569,5.92264,5.92264,0,0,1,.5399.47189l.10351.21155.04043.08761a1.92863,1.92863,0,0,1-.09677,1.45221c-.22393.45266-.51884.87021-.78262,1.30316l-.99173.86656a1.57489,1.57489,0,0,0,1.285.40853,3.00542,3.00542,0,0,0,2.25012-2.29425,3.92588,3.92588,0,0,0-.10023-2.363c-.27054-.8155-.56443-1.62413-.87537-2.42514a25.35475,25.35475,0,0,1-1.75608-5.831,5.94134,5.94134,0,0,0-.59089-1.93863.57633.57633,0,0,0-.3944-.33154c-.23463-.06266-.45821-.16671-.705-.25979a2.74021,2.74021,0,0,0,.47284-.20367,1.96738,1.96738,0,0,0,.27056-2.18648c-.18122-.21647-.4374-.22657-.57206.01775a1.139,1.139,0,0,0-.10337.54915c.00494.28974.08.57871.07993.868-.00015.58381-.35851.78515-.87317.5085a.77784.77784,0,0,1-.206-.149,8.028,8.028,0,0,1-.86424-.98051c-.32951-.50572-.57432-1.06579-.87321-1.59246A4.23189,4.23189,0,0,0,14.296,1.6237a3.59053,3.59053,0,0,0-3.63052.29352l-.067.05312-.08557.06593A1.7749,1.7749,0,0,0,9.64264,3.0969a3.65952,3.65952,0,0,0,.00143,2.49247,5.05415,5.05415,0,0,0,1.64205,2.79927,4.5434,4.5434,0,0,0,4.5601.64953,1.42784,1.42784,0,0,0,.88551-1.81474l-.00095-.00275a3.94927,3.94927,0,0,0-.95386-1.612,5.12456,5.12456,0,0,0-1.13871-.94246,1.40988,1.40988,0,0,0-1.77142.22433.66732.66732,0,0,0-.12391.93557l.00714.00915a2.92974,2.92974,0,0,0,.45622.45876,2.40924,2.40924,0,0,0,.25865.17916,1.18858,1.18858,0,0,1-1.22276-1.06823c.04882-.87111,1.12868-1.36237,1.78935-1.29109a2.5001,2.5001,0,0,1,1.55864.7816c.37522.38961.70408.8239,1.0534,1.23849.0947.17994.19379.35767.28315.54021a1.92665,1.92665,0,0,1,.01453,1.86425l-.04365.07829-.02924.0678c-.11111.15392-.21913.31018-.33384.46137a2.40945,2.40945,0,0,1-2.49773,1.07565c-.30283-.05673-.60143-.13607-.902-.205l-.212-.09117-.07835-.04892-.71994-.3932c-.14369-.17934-.25377-.17622-.37367.03707-.16005.28473-.35374.55032-.52061.83147a16.59752,16.59752,0,0,0-2.33783,6.00286,6.13367,6.13367,0,0,0,1.11575,4.6369c.11572.16183.25367.30777.394.4763l.35549-1.14964c.188-.29557.36523-.59876.56647-.88507a5.2712,5.2712,0,0,1,1.40925-1.18651l.0188.0071ZM19.2569,21.6727c-.07192.03265-.116.0517-.15928.07243a2.3316,2.3316,0,0,1-2.09832.17492.57557.57557,0,0,0-.35211.02158,5.87088,5.87088,0,0,0-2.53063,1.388A3.91732,3.91732,0,0,0,12.788,26.37441a1.76453,1.76453,0,0,0,1.54591,1.91287,5.78682,5.78682,0,0,0,1.2649.06979c.42342-.00554.8493-.10919,1.26869-.08306a2.52,2.52,0,0,0,2.55413-1.72728A7.37417,7.37417,0,0,0,19.75,23.13322,2.97768,2.97768,0,0,0,19.2569,21.6727Z" transform="translate(0 0.00001)"/><path class="cls-3" d="M33.21365,21.13061h-2.533c.05074-.40039.09551-.79133.15042-1.1808.35426-2.51288.71369-5.025,1.05981-7.539a1.15608,1.15608,0,0,0-.08256-.52294c-.09661-.26834-.23016-.52338-.365-.82139.14309-.00712.2359-.01572.32871-.01576,1.43531-.00071,2.87065-.00368,4.30595.00128a3.43537,3.43537,0,0,1,1.97394.52765,2.731,2.731,0,0,1,1.211,1.95237,3.98783,3.98783,0,0,1-1.039,3.49982,3.77808,3.77808,0,0,1-2.6414,1.14294c-.55826.02736-1.11894.01679-1.6782.00608-.20958-.004-.29064.04739-.31826.27433C33.47763,19.34475,33.34128,20.23108,33.21365,21.13061Zm.73188-5.20828c.4686,0,.894-.02318,1.31605.00479a1.39449,1.39449,0,0,0,1.52682-1.44545.90752.90752,0,0,0-.874-1.04451c-.47365-.02111-.94916-.01306-1.42326.0012a.28363.28363,0,0,0-.215.1623C34.15774,14.35621,34.05755,15.11456,33.94553,15.92233Z" transform="translate(0 0.00001)"/><path class="cls-4" d="M20.364,7.76834c-.12808-.27029-.23982-.55007-.38961-.80772a5.30819,5.30819,0,0,0-.4378-.56289,3.03687,3.03687,0,0,0,.25392-2.24626c.0315.03017.07532.05454.09266.09138a1.426,1.426,0,0,0,1.26152.79138A6.18082,6.18082,0,0,0,23.273,4.84451c.17539-.04243.35383-.07221.53086-.1078l.01156.01339c-.204.43659-.42762.86537-.60565,1.31231A5.78026,5.78026,0,0,0,22.905,7.10655,1.38311,1.38311,0,0,0,24.31012,8.907a7.19333,7.19333,0,0,0,2.34669-.24814c.07989-.02027.16162-.03327.27595-.05635-.333.35379-.6615.66184-.93947,1.01022a6.67927,6.67927,0,0,0-.67738,1.03256,2.25071,2.25071,0,0,0,.4324,2.63,14.877,14.877,0,0,0,1.23876,1.23,2.2874,2.2874,0,0,0,.18342.15122c-.60917.46433-1.24475.891-1.81221,1.39448a1.8617,1.8617,0,0,0-.461,2.59218q.02718.03894.05632.07645a9.23,9.23,0,0,0,2.29123,2.47816c.10051.08222.18907.179.28318.26908l.00621-.0056c-.3187-.06272-.63667-.12946-.95621-.18739a5.78678,5.78678,0,0,0-2.5967-.03625A1.62762,1.62762,0,0,0,22.6359,22.869a7.38283,7.38283,0,0,0,.24869,2.34283c.0148.05858.03078.117.04141.17644a.66366.66366,0,0,1-.018.13166,7.93305,7.93305,0,0,0-2.71715-1.85505l-.08307-.80825a13.05147,13.05147,0,0,0,1.43407-.68155A4.02522,4.02522,0,0,0,23.34317,17.57c-.04814-.18777-.10189-.374-.15307-.561.065-.43164.14083-.86193.19291-1.29515a9.06755,9.06755,0,0,0-.584-4.35884A9.73828,9.73828,0,0,0,20.364,7.76834Z" transform="translate(0 0.00001)"/><path class="cls-5" d="M71.0148,19.44968,72.81521,17.958a2.50592,2.50592,0,0,0,2.19617.94089,2.10944,2.10944,0,0,0,.83284-.22047.64266.64266,0,0,0,.00939-1.1985,4.16286,4.16286,0,0,0-1.03559-.31855,4.34764,4.34764,0,0,1-1.62033-.61325A2.97018,2.97018,0,0,1,73.1644,11.762a4.84608,4.84608,0,0,1,3.31808-.82988,3.41368,3.41368,0,0,1,2.56857,1.25731c.05452.06508.10788.13146.15736.20035a1.3131,1.3131,0,0,1,.075.13732l-1.81808,1.26022a2.346,2.346,0,0,0-1.80279-.71088,2.15393,2.15393,0,0,0-.73413.17638.67184.67184,0,0,0-.40055.68063.60651.60651,0,0,0,.40039.59962c.34988.13254.70962.24027,1.06833.348.34788.10442.70578.17789,1.04893.29523a2.458,2.458,0,0,1,1.74012,2.8658,3.597,3.597,0,0,1-3.2469,3.14024,4.74375,4.74375,0,0,1-2.98257-.37915A3.75568,3.75568,0,0,1,71.0148,19.44968Z" transform="translate(0 0.00001)"/><path class="cls-3" d="M42.16074,21.28509a3.49816,3.49816,0,0,1-1.48083-.34963A1.973,1.973,0,0,1,39.52039,18.886a24.97477,24.97477,0,0,1,.40423-2.80857,3.152,3.152,0,0,1,2.85029-2.426,3.19622,3.19622,0,0,1,2.0762.37371,2.02493,2.02493,0,0,1,1.04894,1.98368c-.07473.91827-.22777,1.83062-.362,2.74332a3.06966,3.06966,0,0,1-2.51217,2.42118C42.7421,21.23267,42.44935,21.249,42.16074,21.28509ZM41.897,18.66473a.4805.4805,0,0,0,.33189.54656.68239.68239,0,0,0,.93993-.51514q.191-1.186.33389-2.37932a.573.573,0,0,0-.13682-.38924.586.586,0,0,0-.64015-.14482.60549.60549,0,0,0-.5006.47458c-.12062.81641-.2241,1.63537-.32809,2.40738Z" transform="translate(0 0.00001)"/><path class="cls-5" d="M82.0953,21.32626a8.86494,8.86494,0,0,1-1.32849-.3283,1.98483,1.98483,0,0,1-1.29615-2.17459,25.23319,25.23319,0,0,1,.39158-2.73767,3.16969,3.16969,0,0,1,2.884-2.43679,3.20493,3.20493,0,0,1,2.00848.35547,2.03873,2.03873,0,0,1,1.08251,2.06694c-.08278.88147-.2124,1.75953-.34966,2.63467a2.863,2.863,0,0,1-2.0565,2.32694A10.45906,10.45906,0,0,1,82.0953,21.32626Zm-.27212-2.53759a1.03452,1.03452,0,0,0,.21227.34667A.69233.69233,0,0,0,83.113,18.711q.19181-1.20477.33546-2.41674a.54532.54532,0,0,0-.15426-.38187.60745.60745,0,0,0-.67984-.11076.59322.59322,0,0,0-.44777.47824c-.11138.8058-.22074,1.61192-.34332,2.50877Z" transform="translate(0 0.00001)"/><path class="cls-5" d="M54.46684,13.641a2.93407,2.93407,0,0,1,1.752.53458,2.079,2.079,0,0,1,.86,1.9759c-.09148.8569-.21458,1.71111-.34805,2.56271a2.84324,2.84324,0,0,1-1.84657,2.2606,3.47,3.47,0,0,1-3.09352-.05832,2.02965,2.02965,0,0,1-1.0914-2.12555,11.88021,11.88021,0,0,1,.3005-2.01436,6.33273,6.33273,0,0,1,1.4904-2.554A2.745,2.745,0,0,1,54.46684,13.641ZM53.0953,18.54716c-.03829.53972.19024.76986.63568.72526a.6203.6203,0,0,0,.62854-.59031c.12108-.77975.23228-1.56148.32128-2.34536a.55938.55938,0,0,0-.16451-.41088.69627.69627,0,0,0-1.11741.39015C53.28024,17.08384,53.18812,17.85577,53.0953,18.54716Z" transform="translate(0 0.00001)"/><path class="cls-3" d="M46.64191,20.28547c.13239-.97534.24366-1.9541.4014-2.92531a38.17532,38.17532,0,0,1,1.60434-6.49441,18.64136,18.64136,0,0,1,2.90783-5.555,5.214,5.214,0,0,1,1.2906-1.22445,1.33775,1.33775,0,0,1,1.04309-.214A.77545.77545,0,0,1,54.458,4.89142a4.51425,4.51425,0,0,1-.985,1.76761A20.97754,20.97754,0,0,0,51.44867,9.42a30.498,30.498,0,0,0-2.79462,6.54548c-.38572,1.30142-.68428,2.62852-1.03363,3.941a2.88333,2.88333,0,0,1-.296.735c-.07449.12448-.257.18433-.3908.27332-.08574-.1357-.18064-.26676-.25283-.40932a.57952.57952,0,0,1-.01571-.21633Z" transform="translate(0 0.00001)"/><path class="cls-3" d="M90.08467,11.0489c-.074.55426-.13786,1.05853-.20907,1.56174q-.41076,2.90507-.82363,5.80981a.54339.54339,0,0,0,.50828.66422,3.80876,3.80876,0,0,0,.487.0034,2.76658,2.76658,0,0,1-.463,1.5403,1.59547,1.59547,0,0,1-2.431.0073,2.50611,2.50611,0,0,1-.51152-2.093c.32524-2.39566.66956-4.78872,1.00093-7.18355.02877-.2079.07472-.32445.33-.317C88.652,11.062,89.33239,11.0489,90.08467,11.0489Z" transform="translate(0 0.00001)"/><path class="cls-3" d="M48.087,21.19418c.145-.64486.26373-1.22687.40772-1.80256A28.21471,28.21471,0,0,1,50.91558,12.788a11.44033,11.44033,0,0,1,2.69086-3.503A3.1058,3.1058,0,0,1,55.108,8.5122a1.3478,1.3478,0,0,1,.535.02364.616.616,0,0,1,.45182.9469,6.25491,6.25491,0,0,1-.82356,1.0977,5.07842,5.07842,0,0,1-.73845.64868A13.00269,13.00269,0,0,0,51.264,15.10305a21.47852,21.47852,0,0,0-2.11938,5.24233,4.347,4.347,0,0,1-.43468.99118.48748.48748,0,0,1-.40112.2165C48.20513,21.52928,48.14808,21.30226,48.087,21.19418Z" transform="translate(0 0.00001)"/><path class="cls-3" d="M61.42478,15.27587,61.649,13.725h1.428c-.17417,1.24888-.344,2.47405-.51628,3.69886-.08291.58947-.16445,1.17928-.26183,1.76641a.37677.37677,0,0,1-.17173.26477,4.29156,4.29156,0,0,1-2.28668.26521,1.16424,1.16424,0,0,1-1.013-1.29794l.00542-.03861c.06256-.61608.14265-1.23252.25842-1.84052a1.70494,1.70494,0,0,1,1.81608-1.313C61.06481,15.2349,61.2216,15.25738,61.42478,15.27587Zm-.16627,1.18748c-.57651-.10418-.73538-.00419-.82326.50729-.0555.323-.09388.6489-.1377.97382a2.64645,2.64645,0,0,0-.046.43365c.00882.26814.23041.27965.42049.30123.17516.0199.2901-.03189.31561-.25047C61.06342,17.77872,61.16451,17.13152,61.25851,16.46335Z" transform="translate(0 0.00001)"/><path class="cls-3" d="M64.53289,18.10714c.07.55775.49389.65855,1.25351.28849.1574.16789.32367.34479.4893.52218.04059.04347.07943.08858.11645.13a2.11912,2.11912,0,0,1-2.73346.41293A1.235,1.235,0,0,1,63.14,18.28434c.04295-.48344.107-.96687.19577-1.444a2.02684,2.02684,0,0,1,2.68859-1.50061,1.14271,1.14271,0,0,1,.80438,1.06608,1.39339,1.39339,0,0,1-.78448,1.4749,2.96021,2.96021,0,0,1-.83583.21973A4.44547,4.44547,0,0,1,64.53289,18.10714Zm.12859-.92246a.56717.56717,0,0,0,.62072.0078.43071.43071,0,0,0,.22439-.5505.43573.43573,0,0,0-.30569-.2282.42437.42437,0,0,0-.48134.34476,3.39559,3.39559,0,0,0-.05807.42614Z" transform="translate(0 0.00001)"/><path class="cls-4" d="M19.7926,4.15422a.51436.51436,0,0,1-.10139-.08281c-.29525-.40431-.57672-.52758-.91827-.39813a.9669.9669,0,0,0-.53866,1.01527c.04878.36819.08851.73757.13229,1.10688-.30513.09074-.45058-.08013-.598-.20841A4.63659,4.63659,0,0,1,16.7269,4.19925c-.303-.57881-.61787-1.15443-.97236-1.70246a4.18256,4.18256,0,0,0-1.62886-1.41408L14.61345,0c.19622.45179.35066.88991.57171,1.29134a4.98574,4.98574,0,0,0,.69749.96874,1.23674,1.23674,0,0,0,1.43631.30406,3.56581,3.56581,0,0,0,1.33266-.93078c.38308-.4007.7391-.82724,1.1546-1.29621-.02492.19-.04253.32487-.06032.45977a8.91789,8.91789,0,0,0-.02908,2.93568C19.74473,3.87261,19.76748,4.01364,19.7926,4.15422Z" transform="translate(0 0.00001)"/><path class="cls-3" d="M69.24539,18.53616c-.02051.12619-.03176.22226-.05211.31638-.14182.65546-.493.97357-1.01625.92317a1.07479,1.07479,0,0,1-.98283-1.11419,15.57883,15.57883,0,0,1,.16764-1.69858c.12882-.98577.285-1.968.40681-2.95461.031-.25073.11737-.32805.36214-.315.36121.01929.72423.005,1.12309.005-.06429.48737-.12045.942-.1849,1.3955-.13307.93632-.27375,1.87159-.40506,2.80816C68.59092,18.42256,68.68281,18.52371,69.24539,18.53616Z" transform="translate(0 0.00001)"/><path class="cls-4" d="M23.8038,4.73671l.03716-.04145.01525.02489a.37071.37071,0,0,1-.04084.03Z" transform="translate(0 0.00001)"/><path class="cls-4" d="M27.528,21.46692l.05614.02716-.04993-.03276Z" transform="translate(0 0.00001)"/><path class="cls-1" d="M1.82927,23.44578l-.06557.034.01483-.07912A.28462.28462,0,0,1,1.82927,23.44578Z" transform="translate(0 0.00001)"/><path class="cls-6" d="M9.50094,6.39045l.87983,1.62914c-.0406.02645-.07964.05572-.122.07895a7.62089,7.62089,0,0,0-3.88885,7.729A7.4533,7.4533,0,0,0,8.84746,20.4767c.13473.25429.25283.5193.40792.76052a11.43759,11.43759,0,0,0,.83083,1.18755,1.07866,1.07866,0,0,1,.27774.67978c.00822.16805.04188.33485.06413.50222a8.55657,8.55657,0,0,1-2.94541-1.84171,9.46474,9.46474,0,0,1-2.98294-8.03028,9.345,9.345,0,0,1,2.903-5.84512A8.42454,8.42454,0,0,1,9.50094,6.39045Z" transform="translate(0 0.00001)"/><path class="cls-7" d="M12.24213,5.40493a1.18858,1.18858,0,0,0,1.22276,1.06823,2.41068,2.41068,0,0,1-.25865-.17916A2.92974,2.92974,0,0,1,12.75,5.83524a.66731.66731,0,0,1,.10762-.93758l.00915-.00714a1.40988,1.40988,0,0,1,1.77142-.22433,5.12456,5.12456,0,0,1,1.13871.94246,3.94923,3.94923,0,0,1,.95386,1.612c-.04789.04845-.12869.09092-.13869.14626a1.327,1.327,0,0,1-1.30317,1.076,4.3462,4.3462,0,0,1-3.57133-1.07419,4.99,4.99,0,0,1-1.70381-3.27132,2.35443,2.35443,0,0,1,.39772-1.79874.98061.98061,0,0,0,.10136-.26239l.08557-.06594.06706-.05315A3.5905,3.5905,0,0,1,14.296,1.62369,4.23182,4.23182,0,0,1,15.89,3.38583c.2989.52667.5437,1.08674.87321,1.59246a8.028,8.028,0,0,0,.86424.98051.77784.77784,0,0,0,.206.149c.51466.27665.873.07533.87317-.5085.00007-.28929-.075-.57827-.07993-.868a1.139,1.139,0,0,1,.10337-.54915c.13466-.24436.3908-.23422.57206-.01775a1.96736,1.96736,0,0,1-.27056,2.18648,2.74021,2.74021,0,0,1-.47284.20367c.24677.09308.47035.19713.705.25979a.57631.57631,0,0,1,.3944.33154A5.94134,5.94134,0,0,1,20.249,9.08448a25.35475,25.35475,0,0,0,1.75608,5.831c.31095.80105.60483,1.60967.87537,2.42513a3.9259,3.9259,0,0,1,.10018,2.363c-.06136.06726-.12741.13087-.18333.20239-.31094.39763-.59243.82268-.93734,1.188a1.49093,1.49093,0,0,1-1.046.5188c-.397.00976-.49716-.10511-.444-.50236.01737-.12989.0446-.25846.06733-.38763.26373-.43294.55863-.85049.78263-1.30315a1.9286,1.9286,0,0,0,.09676-1.4522l-.04043-.08762-.1035-.21155c.02429-.037.07312-.07672.06931-.1106A1.32586,1.32586,0,0,0,19.844,16.30821q-.0331.00186-.06608.00537a2.20332,2.20332,0,0,0-1.61108.942,2.2248,2.2248,0,0,1-1.31126.854c-.21607.04891-.43169.09984-.64751.14984l-.13813-.03566-.08656-.04022-.79575-.61683-.0012-.0084.66279-.46343.32825-.1335c.52136-.21278,1.039-.43543,1.566-.63324a3.04755,3.04755,0,0,1,.6-.11371.81561.81561,0,0,1,.03634.11974l.01193.0514-.01937-.05763a.57621.57621,0,0,0,.19237-.031,3.02282,3.02282,0,0,1,2.8936-.09043,2.20938,2.20938,0,0,0,.21549.07353,2.06338,2.06338,0,0,0-1.90884-.86948l.54037-.944-.06344-.06418-.76453.67162c0-.08172.0013-.16294-.0002-.24411a4.30494,4.30494,0,0,0-.285-1.67488,1.76676,1.76676,0,0,0-1.99865-1.10181,2.281,2.281,0,0,0-1.48457,1.03575c-.26014.40988-.45379.862-.67229,1.2861-.02118-.37946-.03349-.78051-.068-1.1796a4.23,4.23,0,0,0-.64-2.13325,1.51128,1.51128,0,0,0-2.41386-.20822,2.82268,2.82268,0,0,0-.74185,1.43395,2.43778,2.43778,0,0,1-.69769,1.49936.36039.36039,0,0,0-.03988.50811l.01753.01908c.09284.12379.22148.2201.32227.33876a.6479.6479,0,0,1,.172.2738,6.322,6.322,0,0,0,1.493,3.144,1.07617,1.07617,0,0,0,.29334.17557,5.271,5.271,0,0,0-1.40925,1.18651c-.20124.2863-.37843.5895-.56648.88507a1.91573,1.91573,0,0,1-.23876-.34477,9.6076,9.6076,0,0,1-.54448-5.47322,12.15869,12.15869,0,0,1,1.43059-3.93538c.21043-.37693.478-.72195.71945-1.08159l.71995.3932.07834.04893.212.09116c.04475.05011.07986.11988.13574.14725a4.18106,4.18106,0,0,0,1.66631.43276A1.97754,1.97754,0,0,0,16.86833,8.6844l.02924-.0678.04363-.07829a1.92664,1.92664,0,0,0-.01454-1.8643c-.08936-.18254-.1885-.36027-.28315-.54021a.45421.45421,0,0,0-.01719-.17815,14.23742,14.23742,0,0,0-.89957-1.492,2.50311,2.50311,0,0,0-1.66511-1.01883,1.89646,1.89646,0,0,0-1.82485.8781A1.01238,1.01238,0,0,0,12.24213,5.40493ZM19.499,12.245a1.7509,1.7509,0,0,0-1.822-1.67678q-.06505.0027-.12975.01022c-.104.01257-.24541.03745-.29371.10828a.47935.47935,0,0,0-.05234.34938c.03357.13506.14043.08577.25718.05146a1.50709,1.50709,0,0,1,.59674-.06968,1.65679,1.65679,0,0,1,1.23235.85953C19.36055,11.99841,19.42868,12.1224,19.499,12.245Z" transform="translate(0 0.00001)"/><path class="cls-8" d="M19.2569,21.6727A2.9777,2.9777,0,0,1,19.75,23.13319a7.3743,7.3743,0,0,1-.32839,3.41351A2.52,2.52,0,0,1,16.8675,28.274c-.41939-.02613-.84527.07751-1.2687.08306a5.78739,5.78739,0,0,1-1.26489-.06979A1.76454,1.76454,0,0,1,12.788,26.37441a3.91738,3.91738,0,0,1,1.32862-3.04479,5.87082,5.87082,0,0,1,2.53063-1.388.57546.57546,0,0,1,.3521-.02157,2.33165,2.33165,0,0,0,2.09833-.17493C19.14088,21.7244,19.185,21.70535,19.2569,21.6727Z" transform="translate(0 0.00001)"/><path class="cls-9" d="M17.65539,20.65232c-.39893.24455-.78161.5228-1.20083.72526-.55343.26733-1.13375.47974-1.70578.70761a10.64045,10.64045,0,0,0-2.67509,1.57454c-.05132-.30962-.09432-.6209-.15533-.9286a3.9027,3.9027,0,0,1,1.82152-4.31368c.38382-.24992.77213-.493,1.15838-.73917a3.90256,3.90256,0,0,1,.39844.29893,1.8467,1.8467,0,0,0,2.06939.4518,3.4357,3.4357,0,0,0,1.24119-.79655,1.48385,1.48385,0,0,1,2.46392,1.58881,3.811,3.811,0,0,1-.24172.48529l-.09506.15093.0016-.0024-.06833.08032.00223-.00159a1.67322,1.67322,0,0,0-.21595.16482,4.07422,4.07422,0,0,1-2.22733,1.33506,3.68437,3.68437,0,0,1-.45763.02331l.85273-.87082c.24375-.06982.49131-.12866.73042-.21181a.8688.8688,0,0,0,.65028-.93468,1.89577,1.89577,0,0,0-.13982-.63288c-.21446-.51007-.69777-.56284-1.092-.13667a1.64863,1.64863,0,0,1-.45833,1.25084,6.17664,6.17664,0,0,0-.34781.52412l.00078-.00086ZM14.16314,19.342c.23058-.12377.47106-.23257.68826-.37654.14618-.09688.10926-.25428-.06474-.27967a.389.389,0,0,0-.3145.09891,3.97357,3.97357,0,0,0-.31048.56041l-.00669.01049Z" transform="translate(0 0.00001)"/><path class="cls-10" d="M8.84749,20.4767A7.45326,7.45326,0,0,1,6.37,15.82758a7.62092,7.62092,0,0,1,3.88885-7.729c.04235-.02323.0814-.0525.122-.07895.18809.18815.36583.38835.56717.561.20164.173.42685.31845.64361.47736-.39376.66954-.80072,1.32643-1.17346,2.00219a15.77157,15.77157,0,0,0-1.9222,5.46166,8.09461,8.09461,0,0,0,.26874,3.60474C8.80082,20.24061,8.82026,20.35989,8.84749,20.4767Z" transform="translate(0 0.00001)"/><path class="cls-11" d="M15.18651,17.5582l.0012.00839c-.62347-.30863-.7871-.27559-1.3418.20895a1.67576,1.67576,0,0,1-.44457.22305c-.20739.09-.41917.1701-.629.25446a2.43715,2.43715,0,0,0-.14727-.30846c-.11174-.17086-.23817-.33206-.35844-.49739a3.06579,3.06579,0,0,0-.13818-.403,5.75684,5.75684,0,0,1-.66626-2.86765c.01533-.34955.04343-.69853.06569-1.04774a2.04828,2.04828,0,0,1,2.4427-.7785.8334.8334,0,0,0-.0918-.11432.74939.74939,0,0,0-.0959-.05013,2.08748,2.08748,0,0,0-1.65775-.05858.50139.50139,0,0,1-.0035-.17905,2.291,2.291,0,0,1,.75164-1.08951,2.98878,2.98878,0,0,0,.27525-.26233.91275.91275,0,0,1,.87114.43037,3.56578,3.56578,0,0,1,.55788,1.16162c.144.69562.16853,1.41589.244,2.12573q.07014.65955.14239,1.31886Zm-.80711-1.32539a2.65665,2.65665,0,0,0-.558-1.43466.60618.60618,0,0,0-1.01583.0693,2.28368,2.28368,0,0,0,.18342,2.51937.59685.59685,0,0,0,1.02934-.10736A6.69115,6.69115,0,0,0,14.3794,16.23281Z" transform="translate(0 0.00001)"/><path class="cls-12" d="M20.364,7.76834A9.73845,9.73845,0,0,1,22.799,11.355a9.06747,9.06747,0,0,1,.584,4.35885c-.05207.43318-.12794.86351-.1929,1.29514-.45034-1.18745-.874-2.38586-1.35754-3.55965A22.49234,22.49234,0,0,1,20.52851,8.5829C20.48241,8.31,20.41929,8.03979,20.364,7.76834Z" transform="translate(0 0.00001)"/><path class="cls-13" d="M14.96387,15.633q-.07125-.65942-.14239-1.31886c-.07553-.70984-.1-1.43015-.244-2.12573a3.56608,3.56608,0,0,0-.55788-1.16162.91274.91274,0,0,0-.87115-.43036,1.08627,1.08627,0,0,0-.2106-.024A2.114,2.114,0,0,0,11.35119,12.676l.70177-.49821.074-.05916-.00189.00862a2.08748,2.08748,0,0,1,1.65775.05858.7483.7483,0,0,1,.09591.05014.83481.83481,0,0,1,.0918.11431,2.04827,2.04827,0,0,0-2.4427.7785,1.069,1.069,0,0,0-.38174.82411,8.70237,8.70237,0,0,0,.1117,1.36626,4.634,4.634,0,0,0,1.00873,2.12813c.1203.16528.24673.32653.35843.49739a2.43656,2.43656,0,0,1,.14728.30846l-.02011.00055-.0188-.0071A1.07632,1.07632,0,0,1,12.44,18.071a6.32206,6.32206,0,0,1-1.493-3.144.648.648,0,0,0-.172-.2738c-.1008-.11868-.22944-.215-.32227-.33876a.36038.36038,0,0,1,.00326-.50965l.01908-.01754a2.43767,2.43767,0,0,0,.69769-1.49936,2.82268,2.82268,0,0,1,.742-1.43395,1.51131,1.51131,0,0,1,2.414.20813,4.23014,4.23014,0,0,1,.64,2.13325c.03451.39911.04682.80015.068,1.1796.21851-.42412.41216-.87621.67229-1.2861A2.28106,2.28106,0,0,1,17.19362,12.053a1.76676,1.76676,0,0,1,1.99864,1.10181,4.30461,4.30461,0,0,1,.285,1.67488c.00151.08117.0002.16239.0002.24411l.76454-.67162.06344.06419-.54038.944a2.06339,2.06339,0,0,1,1.90885.86947,2.2049,2.2049,0,0,1-.21549-.07353,3.02279,3.02279,0,0,0-2.8936.09044.5765.5765,0,0,1-.19237.031l.00743.00622a.817.817,0,0,0-.03633-.11973,3.04836,3.04836,0,0,0-.6.1137c-.527.1978-1.04462.42046-1.566.63325q-.164.067-.32825.13349l-.00258-.14583c.1021-.08484.20642-.16717.306-.25492a4.017,4.017,0,0,1,2.01275-1.02976c.331-.05413.67158-.04976,1.03455-.07373.02228-.28427.06386-.5724.06339-.86045a3.34214,3.34214,0,0,0-.35244-1.65515,1.48608,1.48608,0,0,0-1.98279-.68258,1.72124,1.72124,0,0,0-.90014.63036,3.771,3.771,0,0,0-.7651,1.61679C15.17834,14.97443,15.06451,15.302,14.96387,15.633Z" transform="translate(0 0.00001)"/><path class="cls-14" d="M10.51286,2.03627a.98048.98048,0,0,1-.10136.26239,2.35443,2.35443,0,0,0-.39772,1.79877A4.99,4.99,0,0,0,11.71759,7.3687a4.3462,4.3462,0,0,0,3.57133,1.07419,1.327,1.327,0,0,0,1.30317-1.076c.01-.05529.0908-.09776.13869-.14625a1.42782,1.42782,0,0,1-.8818,1.81654l-.00276.001a4.5434,4.5434,0,0,1-4.5601-.64954A5.05425,5.05425,0,0,1,9.64405,5.58937,3.65958,3.65958,0,0,1,9.64263,3.0969,1.77483,1.77483,0,0,1,10.51286,2.03627Z" transform="translate(0 0.00001)"/><path class="cls-15" d="M12.12449,9.48316c-.24142.35964-.509.70466-.71945,1.08159a12.15905,12.15905,0,0,0-1.4307,3.93538,9.60769,9.60769,0,0,0,.54449,5.47322,1.91573,1.91573,0,0,0,.23876.34477l-.35549,1.14963c-.14025-.16852-.27825-.31446-.394-.4763a6.13364,6.13364,0,0,1-1.11576-4.63689A16.5975,16.5975,0,0,1,11.2302,10.3517c.16687-.28115.36056-.54674.52061-.83147C11.87075,9.30693,11.98083,9.30382,12.12449,9.48316Z" transform="translate(0 0.00001)"/><path class="cls-16" d="M14.89826,17.67832c-.38625.2462-.77456.48925-1.15838.73917a3.90269,3.90269,0,0,0-1.82152,4.31367c.061.30771.104.619.15533.92861l-.57542.6084c-.16289.1721-.29418.13006-.40151-.06087a.55286.55286,0,0,1-.0615-.13151,5.50331,5.50331,0,0,1,.1716-3.81467A3.92293,3.92293,0,0,1,13.39743,18.23a3.23483,3.23483,0,0,0,.73187-.44851A.63314.63314,0,0,1,14.89826,17.67832Z" transform="translate(0 0.00001)"/><path class="cls-15" d="M12.24213,5.40493a1.01235,1.01235,0,0,1-.00537-1.08188,1.89647,1.89647,0,0,1,1.82484-.87811,2.50316,2.50316,0,0,1,1.66511,1.01883,14.23742,14.23742,0,0,1,.89957,1.492.45425.45425,0,0,1,.01719.17815c-.34931-.41459-.67813-.8489-1.05339-1.23848a2.50012,2.50012,0,0,0-1.55865-.78161C13.37081,4.04256,12.291,4.53378,12.24213,5.40493Z" transform="translate(0 0.00001)"/><path class="cls-17" d="M16.2081,18.25934c.21578-.05.43144-.101.64751-.14984a2.22473,2.22473,0,0,0,1.31125-.854,2.20334,2.20334,0,0,1,1.61108-.942,1.32586,1.32586,0,0,1,1.45877,1.178q.00351.033.00536.06608c.00383.03383-.045.07361-.06931.1106a5.92142,5.92142,0,0,0-.53991-.47189,1.63723,1.63723,0,0,0-2.19591.30569,2.97438,2.97438,0,0,1-1.32542.78344A1.096,1.096,0,0,1,16.2081,18.25934Z" transform="translate(0 0.00001)"/><path class="cls-18" d="M18.62174,20.58621,17.769,21.457a3.68421,3.68421,0,0,0,.45762-.02332A4.07424,4.07424,0,0,0,20.454,20.09865a1.67412,1.67412,0,0,1,.21595-.16482,5.113,5.113,0,0,1-.3902.59911,3.80783,3.80783,0,0,1-2.15951,1.32162,1.94293,1.94293,0,0,1-1.39307-.30257c.49425-.32331.95487-.64226,1.43585-.92676C18.282,20.55485,18.46706,20.5962,18.62174,20.58621Z" transform="translate(0 0.00001)"/><path class="cls-17" d="M20.43731,20.72278c-.02278.12916-.05.25774-.06734.38762-.05313.39725.047.51212.444.50236a1.49093,1.49093,0,0,0,1.04605-.5188c.34491-.36527.6264-.79031.93734-1.188.05592-.07152.122-.13513.18333-.20239a3.00542,3.00542,0,0,1-2.25012,2.29424,1.57485,1.57485,0,0,1-1.285-.40853Z" transform="translate(0 0.00001)"/><path class="cls-14" d="M16.86834,8.68448a1.97754,1.97754,0,0,1-1.9315,1.912,4.18123,4.18123,0,0,1-1.66631-.43276c-.05588-.02732-.091-.0971-.13574-.14725.30055.069.59914.14831.902.205a2.40945,2.40945,0,0,0,2.49772-1.07565C16.6492,8.99466,16.75722,8.8384,16.86834,8.68448Z" transform="translate(0 0.00001)"/><path class="cls-18" d="M17.96453,20.44516a6.17653,6.17653,0,0,1,.3478-.52412,1.64859,1.64859,0,0,0,.45833-1.25084c.42969.05035.54323.20562.33172.55062A3.30609,3.30609,0,0,1,17.96453,20.44516Z" transform="translate(0 0.00001)"/><path class="cls-18" d="M17.65539,20.65232l.30992-.208Z" transform="translate(0 0.00001)"/><path class="cls-18" d="M20.73442,19.85751l.09506-.15092Z" transform="translate(0 0.00001)"/><path class="cls-14" d="M10.66549,1.91719l-.06705.05315Z" transform="translate(0 0.00001)"/><path class="cls-14" d="M16.9412,8.53839l-.04363.07829Z" transform="translate(0 0.00001)"/><path class="cls-14" d="M12.92281,9.92529l-.07834-.04893Z" transform="translate(0 0.00001)"/><path class="cls-17" d="M21.27626,17.87983l.04044.08762Z" transform="translate(0 0.00001)"/><path class="cls-17" d="M15.98337,18.18346l.08656.04022Z" transform="translate(0 0.00001)"/><path class="cls-18" d="M20.66773,19.93542l.06832-.08031Z" transform="translate(0 0.00001)"/><path class="cls-14" d="M14.96387,15.633c.10064-.33086.21447-.65852.299-.99352a3.77086,3.77086,0,0,1,.7651-1.61679,1.72124,1.72124,0,0,1,.90014-.63036c-.02984.07335-.04013.16728-.09247.21688a3.22727,3.22727,0,0,0-.91023,2.16093c-.06653.72257-.05551,1.45228-.0787,2.17884l.00258.14583-.66278.46344Z" transform="translate(0 0.00001)"/><path class="cls-19" d="M19.499,12.245c-.07038-.1226-.13847-.24659-.21156-.36754a1.65679,1.65679,0,0,0-1.23235-.85953,1.50672,1.50672,0,0,0-.59674.06968c-.11675.03431-.22361.08359-.25718-.05146a.47935.47935,0,0,1,.05234-.34938c.04833-.07083.18971-.09572.29371-.10828a1.75091,1.75091,0,0,1,1.94155,1.53678Q19.49632,12.17992,19.499,12.245Z" transform="translate(0 0.00001)"/><path class="cls-13" d="M18.37244,16.32783l.01936.05762-.01193-.0514Z" transform="translate(0 0.00001)"/><path class="cls-20" d="M14.16167,19.34508a3.97357,3.97357,0,0,1,.31048-.56041.389.389,0,0,1,.3145-.09891c.174.02539.21092.18279.06474.27967-.2172.144-.45769.25277-.68826.37654Z" transform="translate(0 0.00001)"/><polygon class="cls-20" points="14.164 19.342 14.155 19.356 14.161 19.345 14.164 19.342"/><path class="cls-21" d="M14.3794,16.23281a6.691,6.691,0,0,1-.36106,1.04665.59686.59686,0,0,1-1.02935.10736,2.28369,2.28369,0,0,1-.18341-2.51937.60618.60618,0,0,1,1.01582-.0693A2.65656,2.65656,0,0,1,14.3794,16.23281Zm-.86912-.47187.04556-.01771a2.95685,2.95685,0,0,0-.22626-.55464.27994.27994,0,0,0-.53129.04664,1.56571,1.56571,0,0,0-.0777.66773c.02479.29346.24442.52365.4238.52126.1972-.00261.35412-.25591.36576-.59082C13.511,15.8093,13.51028,15.7851,13.51028,15.76094Z" transform="translate(0 0.00001)"/><path class="cls-17" d="M12.053,12.17785l-.70177.49821a2.114,2.114,0,0,1,1.58666-2.10356,1.08722,1.08722,0,0,1,.21061.024,2.98762,2.98762,0,0,1-.27526.26233,2.291,2.291,0,0,0-.75163,1.0895.50139.50139,0,0,0,.0035.17905l.00188-.00862Z" transform="translate(0 0.00001)"/><path class="cls-22" d="M12.2665,17.44724a4.634,4.634,0,0,1-1.00873-2.12813,8.70129,8.70129,0,0,1-.11176-1.36617,1.069,1.069,0,0,1,.38174-.8241c-.02226.34924-.05035.69823-.06569,1.04774a5.75673,5.75673,0,0,0,.66626,2.86765A3.06584,3.06584,0,0,1,12.2665,17.44724Z" transform="translate(0 0.00001)"/><path class="cls-7" d="M15.84671,16.94893c.02319-.72656.01217-1.45627.0787-2.17884a3.22727,3.22727,0,0,1,.91023-2.16093c.05234-.0496.06263-.14353.09247-.21688a1.48608,1.48608,0,0,1,1.98279.68258A3.34227,3.34227,0,0,1,19.26334,14.73c.00047.28805-.04112.57618-.06339.86045-.363.024-.70353.0196-1.03455.07373A4.01712,4.01712,0,0,0,16.15264,16.694C16.05313,16.78175,15.94881,16.86409,15.84671,16.94893Z" transform="translate(0 0.00001)"/><path class="cls-11" d="M12.05295,12.17785l.074-.05916Z" transform="translate(0 0.00001)"/><path class="cls-23" d="M13.51028,15.76094c0,.02416.00074.04836-.0001.07249-.01164.3349-.16856.5882-.36576.59082-.17939.00239-.399-.22777-.42381-.52127a1.56583,1.56583,0,0,1,.07771-.66772.27994.27994,0,0,1,.53128-.04665,2.95559,2.95559,0,0,1,.22626.55465Z" transform="translate(0 0.00001)"/></svg>