<svg id="Layer_1" data-name="Layer 1" xmlns="http://www.w3.org/2000/svg" viewBox="0 0 28.04529 25"><title>home</title><path d="M27.74643,9.87425,14.45256.14075a.72852.72852,0,0,0-.86086,0L.29771,9.87425a.72871.72871,0,0,0,.861,1.17593L14.02207,1.6318l12.8634,9.41832a.72868.72868,0,0,0,.861-1.17587Z" transform="translate(0.00058)"/><path d="M24.22385,11.21511a.72872.72872,0,0,0-.72868.72868V23.54252H17.66582V17.2112a3.64369,3.64369,0,1,0-7.28738,0v6.33138H4.549V11.94385a.72869.72869,0,1,0-1.45737,0V24.27132A.72872.72872,0,0,0,3.82034,25h7.28678a.72829.72829,0,0,0,.72583-.67194.54736.54736,0,0,0,.00285-.05674V17.21126a2.18633,2.18633,0,1,1,4.37265,0v7.06006a.53553.53553,0,0,0,.00285.05609A.72827.72827,0,0,0,16.93713,25h7.28678a.72868.72868,0,0,0,.72868-.72868V11.94385A.72877.72877,0,0,0,24.22385,11.21511Z" transform="translate(0.00058)"/></svg>