<svg id="Layer_1" data-name="Layer 1" xmlns="http://www.w3.org/2000/svg" viewBox="0 0 75.14677 25.01545"><defs><style>.cls-1{fill:#f68d2d;}.cls-2{fill:#2b2724;}.cls-3{fill:#e32c28;}.cls-4{fill:#f58d2d;}.cls-5{fill:#e32b28;}.cls-6{fill:#fefdfb;}.cls-7{fill:#fbfafa;}.cls-8{fill:#e22927;}.cls-9{fill:#f7e202;}.cls-10{fill:#f8e303;}.cls-11{fill:#f9f8f8;}.cls-12{fill:#fbf9f8;}.cls-13{fill:#303030;}.cls-14{fill:#b6b2b2;}.cls-15{fill:#b7b3b3;}.cls-16{fill:#f38c2b;}.cls-17{fill:#b4b0b0;}.cls-18{fill:#ed892a;}.cls-19{fill:#2e2d2d;}.cls-20{fill:#36341f;}.cls-21{fill:#282727;}.cls-22{fill:#b2aead;}.cls-23{fill:#f5f4f3;}</style></defs><title>logo</title><path class="cls-1" d="M9.62816,21.88319a5.41659,5.41659,0,0,0-.49626-.609,1.59567,1.59567,0,0,0-1.44811-.35139,4.43552,4.43552,0,0,0-1.43043.56734c-.14615.08485-.2928.16883-.404.23293,0-.43509.02755-.871-.00854-1.3015a4.03709,4.03709,0,0,0-.21588-1.06187,1.242,1.242,0,0,0-1.42684-.8188,6.59817,6.59817,0,0,0-2.34972.85482c-.10585.05708-.21486.1083-.32241.16223a.23745.23745,0,0,0-.04233-.03763c.27765-.53929.5785-1.0683.82364-1.622a3.844,3.844,0,0,0,.2448-.96482,1.09355,1.09355,0,0,0-.49032-1.07791A3.78107,3.78107,0,0,0,.4992,15.2239c-.09887-.02064-.19776-.04116-.36261-.07547.14436-.09614.24636-.16353.34782-.23172A6.22677,6.22677,0,0,0,2.02615,13.5534a1.09046,1.09046,0,0,0,.0743-1.32631A3.957,3.957,0,0,0,.717,10.92937c-.21334-.13367-.43755-.25-.717-.40831.14435-.04814.24163-.08015.33861-.113a6.45323,6.45323,0,0,0,1.80368-.854.98983.98983,0,0,0,.37644-1.39928A6.6778,6.6778,0,0,0,1.45044,6.53725c-.0765-.09216-.15531-.18241-.28344-.3326.175.01454.28659.023.398.03321a5.317,5.317,0,0,0,1.87184-.09405,2.24945,2.24945,0,0,0,.47828-.1875.851.851,0,0,0,.526-.93765c-.10538-.56493-.2546-1.12189-.39275-1.68035-.038-.15345-.10377-.3-.16815-.48179.41034.24566.77405.49558,1.16617.68743a3.1903,3.1903,0,0,0,.91721.29154A.99248.99248,0,0,0,7.13149,3.1796a4.6854,4.6854,0,0,0,.35911-1.744c.01166-.192.00183-.38521.00183-.64524l.83927.82535A2.58,2.58,0,0,0,7.56878,3.56a5.96186,5.96186,0,0,0,.35671,1.77076A7.02779,7.02779,0,0,0,6.17518,6.5814a7.96569,7.96569,0,0,0-2.17661,7.91581A7.79045,7.79045,0,0,0,6.24191,18.156a7.13758,7.13758,0,0,0,2.457,1.53631,5.06507,5.06507,0,0,0,.12566.50019.63035.63035,0,0,0,1.1326.26294,2.16668,2.16668,0,0,0,.19665-.26621l.03834.047Z"/><path class="cls-2" d="M9.62816,21.88319l.564-1.647-.03834-.047a2.16668,2.16668,0,0,1-.19665.26621.63035.63035,0,0,1-1.1326-.26294,5.06507,5.06507,0,0,1-.12566-.50019c-.01856-.13961-.04664-.27876-.0535-.41894a.89979.89979,0,0,0-.23168-.56706,9.53919,9.53919,0,0,1-.69306-.99063c-.12938-.20122-.22789-.42228-.34028-.63441-.02271-.09744-.03893-.19694-.06912-.292a6.75239,6.75239,0,0,1-.22418-3.007,13.15645,13.15645,0,0,1,1.60346-4.556c.31093-.56371.65041-1.11167.97888-1.67019-.18082-.13256-.36868-.25392-.53689-.3982-.168-.14406-.31622-.31106-.47312-.468l-.73393-1.359A5.96186,5.96186,0,0,1,7.56878,3.56,2.58,2.58,0,0,1,8.3317,1.61574,3.86013,3.86013,0,0,1,10.61993.74811a5.89758,5.89758,0,0,1,1.16342.15508A3.489,3.489,0,0,1,13.142,2.08278c.29571.45715.55835.93733.81112,1.42016a3.8679,3.8679,0,0,0,.86891,1.15765c.123.107.24434.24954.49887.17385-.03652-.30807-.06966-.6162-.11035-.92334a.80656.80656,0,0,1,.44934-.84691c.28493-.108.51973-.00516.766.33211a.42911.42911,0,0,0,.08463.06908l-.00174-.0023A2.53333,2.53333,0,0,1,16.297,5.33687a4.42763,4.42763,0,0,1,.3652.46955c.125.21492.21818.44831.325.67378.0461.22644.09876.45177.13721.67949a18.76241,18.76241,0,0,0,1.08781,4.05944c.40333.97915.75677,1.97884,1.13243,2.96939.04267.156.08753.31139.12769.468a3.35776,3.35776,0,0,1-1.50262,3.8415,10.88583,10.88583,0,0,1-1.19627.56853l.0693.67423a7.22321,7.22321,0,0,1-.27254,2.30979,2.48748,2.48748,0,0,1-1.80942,1.79018,1.11858,1.11858,0,0,1-.38916.05167.858.858,0,0,0-.77065.35228,2.53572,2.53572,0,0,1-2.45754.70178A2.13638,2.13638,0,0,1,9.565,22.883C9.56249,22.54992,9.6058,22.21648,9.62816,21.88319Zm7.6694-5.32051-.00134.00206.0793-.1259a3.1794,3.1794,0,0,0,.20164-.40482,1.2378,1.2378,0,0,0-2.05535-1.32534,2.866,2.866,0,0,1-1.03538.66446,1.54048,1.54048,0,0,1-1.72624-.37688,3.25425,3.25425,0,0,0-.33237-.24936.52817.52817,0,0,0-.64144.08605,2.69862,2.69862,0,0,1-.61051.37414,3.27244,3.27244,0,0,0-1.82733,1.69433,4.5907,4.5907,0,0,0-.14314,3.18212.461.461,0,0,0,.0513.1097c.08953.15927.199.19434.33493.05078q.2401-.25366.48-.50752a8.8762,8.8762,0,0,1,2.23151-1.31345c.47717-.19008.96126-.36729,1.42292-.59027.34973-.16892.66893-.401,1.00171-.605l.25853-.17353-.00065.00072a2.75776,2.75776,0,0,0,.94917-1.02132c.17644-.28779.08173-.4173-.27671-.45931.32882-.35554.732-.31152.91088.114a1.58133,1.58133,0,0,1,.11664.52794.72474.72474,0,0,1-.54245.77969c-.19946.06936-.406.11845-.6093.17669-.129.00834-.28341-.02616-.38265.03255-.40122.23733-.78546.50339-1.19775.77309a1.62074,1.62074,0,0,0,1.16207.25239A3.17641,3.17641,0,0,0,16.917,17.12817a4.26579,4.26579,0,0,0,.32549-.49977l-.00186.00133Zm-6.64322-1.33632c.17508-.07037.35169-.13722.52474-.21227a1.39761,1.39761,0,0,0,.37085-.18606c.46272-.40419.59922-.43175,1.1193-.1743l.6638.51455.0722.03355.11523.02975a.91433.91433,0,0,0,.75362.02181,2.48111,2.48111,0,0,0,1.10563-.65353,1.36575,1.36575,0,0,1,1.83179-.255,4.94126,4.94126,0,0,1,.45038.39364l.08634.17647.03373.07309a1.60882,1.60882,0,0,1-.08072,1.2114c-.1868.3776-.43281.72591-.65285,1.08707l-.82728.72286a1.31373,1.31373,0,0,0,1.07192.34079,2.50705,2.50705,0,0,0,1.877-1.91381,3.27489,3.27489,0,0,0-.08361-1.97114c-.22568-.68027-.47083-1.35481-.73021-2.023a21.15046,21.15046,0,0,1-1.46489-4.86412,4.956,4.956,0,0,0-.49291-1.61717.48074.48074,0,0,0-.329-.27656c-.19572-.05227-.38223-.13907-.58808-.21671a2.28652,2.28652,0,0,0,.39444-.1699,1.64114,1.64114,0,0,0,.22569-1.82392c-.15117-.18057-.36487-.189-.4772.01481a.95012.95012,0,0,0-.08623.45809c.00412.24169.06674.48275.06668.72407-.00013.487-.29906.65495-.72838.42418a.64914.64914,0,0,1-.17187-.12427,6.69707,6.69707,0,0,1-.72093-.81792c-.27487-.42186-.47908-.88906-.72841-1.3284a3.53016,3.53016,0,0,0-1.32969-1.46994,2.99514,2.99514,0,0,0-3.02851.24485L8.841,1.64363l-.07138.055a1.48056,1.48056,0,0,0-.72593.88475,3.05273,3.05273,0,0,0,.00119,2.07917A4.2161,4.2161,0,0,0,9.41465,6.99764a3.79,3.79,0,0,0,3.80394.54183,1.19107,1.19107,0,0,0,.73788-1.51612,3.29437,3.29437,0,0,0-.79569-1.34472,4.27484,4.27484,0,0,0-.94989-.78618,1.1761,1.1761,0,0,0-1.47768.18713.55667.55667,0,0,0-.09741.78807,2.4443,2.4443,0,0,0,.38057.38269,2.01225,2.01225,0,0,0,.21576.14945.99149.99149,0,0,1-1.02-.8911c.04073-.72666.94152-1.13646,1.49264-1.077a2.08555,2.08555,0,0,1,1.30019.652c.313.325.58733.68728.87872,1.03312.079.1501.16166.29836.2362.45063A1.60719,1.60719,0,0,1,14.132,7.12256l-.03641.06531-.02439.05656c-.09269.12839-.1828.25874-.27849.38486a2.00991,2.00991,0,0,1-2.08355.89729c-.25262-.04733-.5017-.11351-.75241-.171l-.17683-.07605-.06536-.04081-.60056-.328c-.11986-.1496-.21169-.147-.31171.03092-.13351.23752-.29508.45907-.43428.6936a13.84525,13.84525,0,0,0-1.95017,5.00746,5.11657,5.11657,0,0,0,.93074,3.868c.09653.135.2116.25674.32864.39732l.29654-.959c.15686-.24656.30467-.49948.47254-.73831a4.397,4.397,0,0,1,1.17557-.98976l.01568.00592Zm5.40937,2.85257c-.06.02724-.09678.04313-.13287.06042a1.945,1.945,0,0,1-1.75038.14592.48008.48008,0,0,0-.29372.018,4.89733,4.89733,0,0,0-2.111,1.15783,3.26779,3.26779,0,0,0-1.1083,2.5399,1.47194,1.47194,0,0,0,1.28957,1.59568,4.82758,4.82758,0,0,0,1.05515.05822c.35321-.00463.70847-.09109,1.05832-.06929a2.10213,2.10213,0,0,0,2.1306-1.44086,6.15144,6.15144,0,0,0,.27394-2.84748A2.48394,2.48394,0,0,0,16.06371,18.07893Z"/><path class="cls-3" d="M27.70614,17.62673h-2.113c.04233-.334.07967-.66011.12548-.985.29551-2.09619.59534-4.19179.88407-6.28892a.96435.96435,0,0,0-.06887-.43622c-.08059-.22385-.192-.4366-.3045-.68519.11936-.00594.19678-.01311.2742-.01315,1.19731-.00059,2.39464-.00307,3.59194.00107a2.86572,2.86572,0,0,1,1.64662.44016,2.27813,2.27813,0,0,1,1.01019,1.62862,3.32657,3.32657,0,0,1-.86674,2.91948,3.15161,3.15161,0,0,1-2.2034.95342c-.46569.02282-.9334.014-1.39992.00507-.17483-.00336-.24245.03953-.26549.22884C27.92635,16.137,27.81261,16.87636,27.70614,17.62673Zm.61052-4.34464c.3909,0,.74578-.01934,1.09782.004a1.16324,1.16324,0,0,0,1.27364-1.20577.75706.75706,0,0,0-.72905-.87131c-.39511-.01761-.79177-.01089-1.18726.001a.23662.23662,0,0,0-.17934.13539C28.49368,11.97567,28.4101,12.60827,28.31666,13.28209Z"/><path class="cls-4" d="M16.98725,6.4802c-.10684-.22547-.20005-.45886-.325-.67378a4.42763,4.42763,0,0,0-.3652-.46955,2.53333,2.53333,0,0,0,.21181-1.87379c.02628.02517.06283.0455.0773.07623a1.18952,1.18952,0,0,0,1.05233.66015,5.1558,5.1558,0,0,0,1.77534-.15826c.1463-.03539.29515-.06023.44283-.08992l.00964.01117c-.17019.36419-.35671.72187-.50522,1.0947a4.82228,4.82228,0,0,0-.25424.871A1.15377,1.15377,0,0,0,20.279,7.43006a6.00067,6.00067,0,0,0,1.95756-.207c.06664-.01691.13482-.02775.23019-.047-.27776.29512-.55181.55209-.78368.8427a5.57156,5.57156,0,0,0-.56506.86134,1.87749,1.87749,0,0,0,.3607,2.19391,12.40888,12.40888,0,0,0,1.03335,1.02608,1.90729,1.90729,0,0,0,.153.12615c-.50816.38733-1.03834.74326-1.51171,1.16324a1.553,1.553,0,0,0-.33756,2.22612,7.69964,7.69964,0,0,0,1.9113,2.06723c.08384.06858.15772.14935.23622.22446l.00518-.00467c-.26585-.05232-.53109-.108-.79765-.15632a4.82722,4.82722,0,0,0-2.16611-.03024,1.35773,1.35773,0,0,0-1.12233,1.36083,6.15857,6.15857,0,0,0,.20745,1.95434c.01235.04887.02568.09764.03454.14718a.554.554,0,0,1-.015.10983A6.61768,6.61768,0,0,0,16.8428,19.7408l-.0693-.67423a10.88583,10.88583,0,0,0,1.19627-.56853,3.35776,3.35776,0,0,0,1.50262-3.8415c-.04016-.15663-.085-.312-.12769-.468.05419-.36006.11748-.719.16092-1.08038a7.564,7.564,0,0,0-.48713-3.63606A8.12352,8.12352,0,0,0,16.98725,6.4802Z"/><path class="cls-5" d="M59.23908,16.22453l1.50186-1.24435a2.09038,2.09038,0,0,0,1.832.78487,1.75959,1.75959,0,0,0,.69474-.18391.53609.53609,0,0,0,.00783-.99976,3.47221,3.47221,0,0,0-.86387-.26573A3.62685,3.62685,0,0,1,61.06,13.80409a2.47766,2.47766,0,0,1-.02777-3.99245,4.04248,4.04248,0,0,1,2.76787-.69227,2.8476,2.8476,0,0,1,2.14265,1.04882c.04549.05429.09.10966.13127.16713a1.096,1.096,0,0,1,.06256.11455l-1.5166,1.05125a1.957,1.957,0,0,0-1.50385-.593,1.79651,1.79651,0,0,0-.6124.14713.56043.56043,0,0,0-.33413.56777.50593.50593,0,0,0,.334.50019c.29186.11056.59195.20043.89118.29025.29019.08711.58874.14839.875.24628a2.05041,2.05041,0,0,1,1.45157,2.39059,3.0005,3.0005,0,0,1-2.7085,2.61952,3.95711,3.95711,0,0,1-2.488-.31628A3.13288,3.13288,0,0,1,59.23908,16.22453Z"/><path class="cls-3" d="M35.16962,17.75559a2.918,2.918,0,0,1-1.23528-.29165,1.64583,1.64583,0,0,1-.96725-1.70962,20.83437,20.83437,0,0,1,.3372-2.34285,2.62933,2.62933,0,0,1,2.37765-2.02373,2.66619,2.66619,0,0,1,1.73193.31174,1.68916,1.68916,0,0,1,.875,1.65474c-.06234.766-.19,1.52707-.302,2.28842a2.56064,2.56064,0,0,1-2.0956,2.0197C35.65458,17.71187,35.41037,17.72546,35.16962,17.75559Zm-.22-2.18585a.40082.40082,0,0,0,.27686.45593.56924.56924,0,0,0,.78407-.42972q.15934-.98931.27852-1.98478a.4779.4779,0,0,0-.11413-.32469.48879.48879,0,0,0-.534-.12081.50509.50509,0,0,0-.41759.39589C35.12273,14.24259,35.03641,14.92575,34.94966,15.56974Z"/><path class="cls-5" d="M68.4822,17.78994a7.39494,7.39494,0,0,1-1.1082-.27386,1.65572,1.65572,0,0,1-1.08122-1.814,21.0503,21.0503,0,0,1,.32665-2.28371,2.64409,2.64409,0,0,1,2.40575-2.03272,2.67348,2.67348,0,0,1,1.67544.29653,1.70065,1.70065,0,0,1,.903,1.7242c-.06905.7353-.17718,1.46776-.29167,2.19778a2.38828,2.38828,0,0,1-1.71549,1.94109A8.72465,8.72465,0,0,1,68.4822,17.78994Zm-.227-2.11681a.86306.86306,0,0,0,.17707.28919.57754.57754,0,0,0,.89884-.35395q.16-1.005.27983-2.016a.45493.45493,0,0,0-.12868-.31855.50672.50672,0,0,0-.56711-.09239.49484.49484,0,0,0-.37352.39894C68.44872,14.25255,68.3575,14.925,68.25525,15.67313Z"/><path class="cls-5" d="M45.43511,11.37905a2.44753,2.44753,0,0,1,1.46149.44594,1.73426,1.73426,0,0,1,.7174,1.64825c-.07631.71481-.179,1.42738-.29034,2.13776a2.37177,2.37177,0,0,1-1.54037,1.88575,2.89458,2.89458,0,0,1-2.58055-.04865,1.69309,1.69309,0,0,1-.91042-1.77309,9.9097,9.9097,0,0,1,.25067-1.68034,5.28273,5.28273,0,0,1,1.24326-2.13051A2.28982,2.28982,0,0,1,45.43511,11.37905ZM44.291,15.47167c-.03194.45022.1587.6422.53027.605a.51745.51745,0,0,0,.52432-.49243c.101-.65045.19376-1.30255.268-1.95645a.46659.46659,0,0,0-.13723-.34275.58082.58082,0,0,0-.93212.32546C44.44528,14.251,44.36843,14.89493,44.291,15.47167Z"/><path class="cls-3" d="M38.90772,16.92173c.11043-.81361.20325-1.63007.33484-2.44023A31.84522,31.84522,0,0,1,40.58086,9.064,15.55022,15.55022,0,0,1,43.00652,4.4301a4.34916,4.34916,0,0,1,1.07659-1.02141,1.11589,1.11589,0,0,1,.87012-.17848.64683.64683,0,0,1,.47446.85012,3.76562,3.76562,0,0,1-.8217,1.47451A17.49879,17.49879,0,0,0,42.91742,7.858,25.44083,25.44083,0,0,0,40.5862,13.3181c-.32176,1.08562-.57081,2.19266-.86223,3.28749a2.40528,2.40528,0,0,1-.24691.61311c-.06214.10384-.21439.15376-.326.228-.07152-.1132-.15069-.22253-.2109-.34145a.48344.48344,0,0,1-.01311-.18046Z"/><path class="cls-3" d="M75.14677,9.21678c-.06172.46235-.115.883-.1744,1.30277q-.34265,2.42334-.68706,4.84642a.45327.45327,0,0,0,.424.55408,3.17807,3.17807,0,0,0,.40626.00284,2.30779,2.30779,0,0,1-.38626,1.28488,1.33091,1.33091,0,0,1-2.02787.00609,2.09052,2.09052,0,0,1-.4267-1.74592c.27131-1.99841.55853-3.99465.83495-5.99237.024-.17342.06233-.27065.27525-.26442C73.9517,9.22771,74.51923,9.21678,75.14677,9.21678Z"/><path class="cls-3" d="M40.11319,17.67976c.121-.53793.22-1.02343.34011-1.50366a23.53651,23.53651,0,0,1,2.01942-5.50857,9.54342,9.54342,0,0,1,2.24466-2.92217,2.59089,2.59089,0,0,1,1.25254-.64465,1.12444,1.12444,0,0,1,.44629.01972.51387.51387,0,0,1,.3769.78989,5.21841,5.21841,0,0,1-.687.91568,4.23652,4.23652,0,0,1-.616.54111,10.84662,10.84662,0,0,0-2.72675,3.23155,17.91707,17.91707,0,0,0-1.76794,4.37305,3.62651,3.62651,0,0,1-.3626.82682.40665.40665,0,0,1-.33461.1806C40.21172,17.95929,40.16413,17.76992,40.11319,17.67976Z"/><path class="cls-3" d="M51.23928,12.74283l.187-1.29372h1.19122c-.14529,1.04179-.287,2.0638-.43067,3.08551-.06917.49172-.13718.98373-.21842,1.4735a.31429.31429,0,0,1-.14325.22087,3.58,3.58,0,0,1-1.9075.22123.97118.97118,0,0,1-.84053-1.11492c.05219-.51392.119-1.02814.21557-1.53532a1.42224,1.42224,0,0,1,1.51494-1.0953C50.939,12.70865,51.06979,12.7274,51.23928,12.74283Zm-.1387.99057c-.48091-.08691-.61344-.0035-.68675.42317-.04629.26941-.07831.5413-.11486.81234a2.20667,2.20667,0,0,0-.0384.36174c.00736.22368.1922.23328.35076.25128.14612.0166.242-.0266.26328-.20894C50.93784,14.83065,51.02217,14.29077,51.10058,13.7334Z"/><path class="cls-3" d="M53.832,15.10461c.05839.46527.412.54935,1.04565.24066.1313.14005.27.28761.40817.43559.03386.03626.06626.07389.09714.10843a1.76773,1.76773,0,0,1-2.2802.34446,1.03024,1.03024,0,0,1-.43268-.98132c.03583-.40327.08927-.80654.16331-1.20454a1.6907,1.6907,0,0,1,2.24276-1.25177.95322.95322,0,0,1,.671.8893,1.16234,1.16234,0,0,1-.6544,1.23033,2.46933,2.46933,0,0,1-.69723.18329A3.70719,3.70719,0,0,1,53.832,15.10461Zm.10727-.76949a.47312.47312,0,0,0,.51779.0065.35928.35928,0,0,0,.18718-.45921.36346.36346,0,0,0-.255-.19036.354.354,0,0,0-.40152.28759A2.83173,2.83173,0,0,0,53.93928,14.33512Z"/><path class="cls-4" d="M16.51058,3.46538A.42911.42911,0,0,1,16.426,3.3963c-.24629-.33727-.48109-.4401-.766-.33211a.80656.80656,0,0,0-.44934.84691c.04069.30714.07383.61527.11035.92334-.25453.07569-.37586-.06684-.49887-.17385a3.8679,3.8679,0,0,1-.86891-1.15765c-.25277-.48283-.51541-.963-.81112-1.42016A3.489,3.489,0,0,0,11.78335.90319L12.19024,0c.16368.37688.29251.74235.47691,1.07721a4.15878,4.15878,0,0,0,.58183.80811,1.03167,1.03167,0,0,0,1.19814.25364,2.97461,2.97461,0,0,0,1.11168-.77644c.31955-.33426.61654-.69007.96314-1.08127-.02079.15849-.03548.271-.05032.38353a7.4392,7.4392,0,0,0-.02426,2.44888C16.47065,3.23046,16.48962,3.34811,16.51058,3.46538Z"/><path class="cls-3" d="M57.76307,15.46249c-.0171.10527-.02649.18541-.04347.26392-.1183.54677-.41128.81213-.84773.77009a.89657.89657,0,0,1-.81986-.92943,12.99722,12.99722,0,0,1,.13984-1.41692c.10746-.82231.23773-1.64171.33935-2.46468.02583-.20915.09791-.27365.30209-.26274.30132.01609.60414.00415.93686.00415-.05363.40656-.10047.78582-.15424,1.1641-.111.78106-.22835,1.56124-.33789,2.34251C57.21713,15.36773,57.29378,15.45211,57.76307,15.46249Z"/><path class="cls-4" d="M19.85664,3.95128l.031-.03458.01272.02076a.309.309,0,0,1-.03407.025Z"/><path class="cls-4" d="M22.96329,17.90727l.04683.02266-.04165-.02733Z"/><path class="cls-1" d="M1.52594,19.558l-.0547.02836.01237-.066A.23745.23745,0,0,1,1.52594,19.558Z"/><path class="cls-6" d="M7.92549,5.33079l.73393,1.359c-.03386.02206-.06643.04648-.10176.06586a6.3572,6.3572,0,0,0-3.244,6.4474,6.21737,6.21737,0,0,0,2.06671,3.8782c.11239.21213.2109.43319.34028.63441a9.53919,9.53919,0,0,0,.69306.99063.89979.89979,0,0,1,.23168.56706c.00686.14018.03494.27933.0535.41894a7.13758,7.13758,0,0,1-2.457-1.53631,7.8953,7.8953,0,0,1-2.48831-6.6987A7.79541,7.79541,0,0,1,6.17518,6.5814,7.02779,7.02779,0,0,1,7.92549,5.33079Z"/><path class="cls-7" d="M10.21213,4.50869a.99149.99149,0,0,0,1.02.8911,2.01225,2.01225,0,0,1-.21576-.14945,2.4443,2.4443,0,0,1-.38057-.38269.55667.55667,0,0,1,.09741-.78807,1.1761,1.1761,0,0,1,1.47768-.18713,4.27484,4.27484,0,0,1,.94989.78618,3.29437,3.29437,0,0,1,.79569,1.34472c-.03995.04041-.10735.07584-.11569.122a1.107,1.107,0,0,1-1.08708.89759,3.62552,3.62552,0,0,1-2.97913-.89607A4.16251,4.16251,0,0,1,8.35329,3.418a1.964,1.964,0,0,1,.33177-1.50047.818.818,0,0,0,.08455-.21888l.07138-.055.05594-.04434a2.99514,2.99514,0,0,1,3.02851-.24485,3.53016,3.53016,0,0,1,1.32969,1.46994c.24933.43934.45354.90654.72841,1.3284a6.69707,6.69707,0,0,0,.72093.81792.64914.64914,0,0,0,.17187.12427c.42932.23077.72825.06284.72838-.42418.00006-.24132-.06256-.48238-.06668-.72407a.95012.95012,0,0,1,.08623-.45809c.11233-.20384.326-.19538.4772-.01481a1.64114,1.64114,0,0,1-.22569,1.82392,2.28652,2.28652,0,0,1-.39444.1699c.20585.07764.39236.16444.58808.21671a.48074.48074,0,0,1,.329.27656,4.956,4.956,0,0,1,.49291,1.61717,21.15046,21.15046,0,0,0,1.46489,4.86412c.25938.66822.50453,1.34276.73021,2.023A3.27489,3.27489,0,0,1,19.17,16.43637c-.05119.05611-.10628.10917-.15293.16883-.25938.3317-.49419.68626-.78191.991a1.2437,1.2437,0,0,1-.87259.43277c-.3312.00814-.41472-.08768-.3704-.41906.01449-.10835.03721-.2156.05617-.32335.22-.36115.466-.70946.65285-1.08706a1.60882,1.60882,0,0,0,.08072-1.2114l-.03373-.07309-.08634-.17647c.02027-.03086.061-.064.05782-.09226a1.106,1.106,0,0,0-1.22135-1.03782,1.838,1.838,0,0,0-1.34393.78577,1.85583,1.85583,0,0,1-1.09382.71238c-.18024.0408-.36011.08329-.54014.125l-.11523-.02975-.0722-.03355-.6638-.51455-.001-.007.55288-.38659q.13692-.05566.27382-.11136c.43491-.1775.86672-.36323,1.30631-.52824a2.54288,2.54288,0,0,1,.50052-.09485.68109.68109,0,0,1,.03031.09988l.00995.04288-.01615-.04807a.48076.48076,0,0,0,.16047-.02587,2.52157,2.52157,0,0,1,2.41378-.07544,1.84053,1.84053,0,0,0,.17976.06134,1.72124,1.72124,0,0,0-1.59232-.7253l.45077-.78748-.05292-.05354-.63776.56025c0-.06817.00109-.13592-.00017-.20363a3.59087,3.59087,0,0,0-.23777-1.39715,1.4738,1.4738,0,0,0-1.66723-.91911,1.90279,1.90279,0,0,0-1.2384.864c-.217.34192-.37854.71905-.56081,1.07284-.01767-.31654-.02794-.65108-.05673-.984a3.52859,3.52859,0,0,0-.53391-1.77951A1.26068,1.26068,0,0,0,9.939,9.05412a2.35456,2.35456,0,0,0-.61884,1.19617,2.03352,2.03352,0,0,1-.582,1.25074.30063.30063,0,0,0-.01864.43977c.07744.10326.18475.1836.26883.28258a.54055.54055,0,0,1,.14349.2284,5.27374,5.27374,0,0,0,1.24544,2.62266.89789.89789,0,0,0,.2447.14646,4.397,4.397,0,0,0-1.17557.98976c-.16787.23883-.31568.49175-.47254.73831a1.59784,1.59784,0,0,1-.19917-.2876,8.01447,8.01447,0,0,1-.4542-4.56565A10.14259,10.14259,0,0,1,9.51387,8.81291c.17554-.31443.39876-.60224.60015-.90224l.60057.328.06535.04081.17683.07605c.03733.0418.06662.1.11323.12283a3.48785,3.48785,0,0,0,1.39.361,1.64962,1.64962,0,0,0,1.61121-1.595l.02439-.05656.0364-.06531a1.60716,1.60716,0,0,0-.01213-1.55516c-.07454-.15227-.15724-.30053-.2362-.45063a.37887.37887,0,0,0-.01434-.14861,11.87619,11.87619,0,0,0-.7504-1.24456,2.08807,2.08807,0,0,0-1.389-.84989,1.582,1.582,0,0,0-1.52225.7325A.84449.84449,0,0,0,10.21213,4.50869Zm6.05355,5.70585a1.46057,1.46057,0,0,0-1.62812-1.39021c-.08677.01048-.20471.03124-.245.09032a.39987.39987,0,0,0-.04366.29145c.028.11266.11714.07155.21453.04293a1.257,1.257,0,0,1,.49779-.05813,1.38207,1.38207,0,0,1,1.028.717C16.15017,10.00884,16.207,10.11227,16.26568,10.21454Z"/><path class="cls-8" d="M16.06371,18.07893a2.48394,2.48394,0,0,1,.41135,1.21831,6.15144,6.15144,0,0,1-.27394,2.84748,2.10213,2.10213,0,0,1-2.1306,1.44086c-.34985-.0218-.70511.06466-1.05832.06929a4.82758,4.82758,0,0,1-1.05515-.05822A1.47194,1.47194,0,0,1,10.66748,22.001a3.26779,3.26779,0,0,1,1.1083-2.5399,4.89733,4.89733,0,0,1,2.111-1.15783.48008.48008,0,0,1,.29372-.018,1.945,1.945,0,0,0,1.75038-.14592C15.96693,18.12206,16.0037,18.10617,16.06371,18.07893Z"/><path class="cls-9" d="M14.72776,17.22775c-.33278.204-.652.43611-1.00171.605-.46166.223-.94575.40019-1.42292.59027a8.8762,8.8762,0,0,0-2.23151,1.31345c-.04281-.25828-.07868-.51794-.12957-.77462a3.25555,3.25555,0,0,1,1.51947-3.59838c.32018-.20848.6441-.41122.9663-.6166a3.25425,3.25425,0,0,1,.33237.24936,1.54048,1.54048,0,0,0,1.72624.37688,2.866,2.866,0,0,0,1.03538-.66446A1.2378,1.2378,0,0,1,17.57716,16.034a3.1794,3.1794,0,0,1-.20164.40482l-.0793.1259.00134-.002-.057.067.00186-.00133a1.39633,1.39633,0,0,0-.18014.13749,3.39862,3.39862,0,0,1-1.858,1.11368,3.07242,3.07242,0,0,1-.38174.01945l.71133-.72642c.20333-.05824.40984-.10733.6093-.17669a.72474.72474,0,0,0,.54245-.77969,1.58133,1.58133,0,0,0-.11664-.52794c-.17889-.42549-.58206-.46951-.91088-.114a1.37523,1.37523,0,0,1-.38233,1.04342,5.1522,5.1522,0,0,0-.29013.43721l.00065-.00072ZM11.8146,16.13468c.19234-.10324.39295-.194.57413-.3141.12194-.08081.09114-.21211-.054-.23329a.32446.32446,0,0,0-.26235.08251,3.31417,3.31417,0,0,0-.259.46748l-.00558.00875Z"/><path class="cls-10" d="M7.38039,17.08125a6.21737,6.21737,0,0,1-2.06671-3.8782,6.3572,6.3572,0,0,1,3.244-6.4474c.03533-.01938.0679-.0438.10176-.06586.1569.15695.30517.32395.47312.468.16821.14428.35607.26564.53689.3982-.32847.55852-.66795,1.10648-.97888,1.67019a13.15645,13.15645,0,0,0-1.60346,4.556,6.75239,6.75239,0,0,0,.22418,3.007C7.34146,16.88431,7.35768,16.98381,7.38039,17.08125Z"/><path class="cls-11" d="M12.66827,14.6467l.001.007c-.52008-.25745-.65658-.22989-1.1193.1743a1.39761,1.39761,0,0,1-.37085.18606c-.173.07505-.34966.1419-.52474.21227a2.03309,2.03309,0,0,0-.12285-.25731c-.09321-.14253-.19868-.277-.299-.41491a2.55693,2.55693,0,0,0-.11527-.33615,4.80226,4.80226,0,0,1-.55578-2.39214c.01279-.29158.03623-.5827.0548-.874a1.70862,1.70862,0,0,1,2.03765-.64941.6954.6954,0,0,0-.07658-.09536.62445.62445,0,0,0-.08-.04182,1.74134,1.74134,0,0,0-1.38286-.04887.41832.41832,0,0,1-.00292-.14936,1.91109,1.91109,0,0,1,.627-.90884,2.49315,2.49315,0,0,0,.22961-.21883.76139.76139,0,0,1,.72669.359,2.97466,2.97466,0,0,1,.46537.969c.12008.58027.14058,1.18111.20354,1.77324q.05851.55019.11878,1.10017ZM11.995,13.54109a2.21611,2.21611,0,0,0-.46551-1.19677.50567.50567,0,0,0-.84738.05781,1.905,1.905,0,0,0,.153,2.10161.49788.49788,0,0,0,.85866-.08956A5.58208,5.58208,0,0,0,11.995,13.54109Z"/><path class="cls-12" d="M16.98725,6.4802a8.12352,8.12352,0,0,1,2.03124,2.99188,7.564,7.564,0,0,1,.48713,3.63606c-.04344.36135-.10673.72032-.16092,1.08038-.37566-.99055-.7291-1.99024-1.13243-2.96939a18.76241,18.76241,0,0,1-1.08781-4.05944C17.086,6.932,17.03335,6.70664,16.98725,6.4802Z"/><path class="cls-13" d="M12.48255,13.0407q-.05944-.55008-.11878-1.10017c-.063-.59213-.08346-1.193-.20354-1.77324a2.97466,2.97466,0,0,0-.46537-.969.76139.76139,0,0,0-.72669-.359.90654.90654,0,0,0-.17568-.02,1.76348,1.76348,0,0,0-1.32356,1.75475l.5854-.4156.06171-.04935-.00157.00719a1.74134,1.74134,0,0,1,1.38286.04887.62445.62445,0,0,1,.08.04182.6954.6954,0,0,1,.07658.09536,1.70862,1.70862,0,0,0-2.03765.64941.89174.89174,0,0,0-.31844.68745A7.2589,7.2589,0,0,0,9.391,12.7789a3.8656,3.8656,0,0,0,.84146,1.77524c.10035.13787.20582.27238.299.41491a2.03309,2.03309,0,0,1,.12285.25731l-.01677.00046-.01568-.00592a.89789.89789,0,0,1-.2447-.14646,5.27374,5.27374,0,0,1-1.24544-2.62266.54055.54055,0,0,0-.14349-.2284c-.08408-.099-.19139-.17932-.26883-.28258a.30063.30063,0,0,1,.01864-.43977,2.03352,2.03352,0,0,0,.582-1.25074A2.35456,2.35456,0,0,1,9.939,9.05412a1.26068,1.26068,0,0,1,2.01371.17362,3.52859,3.52859,0,0,1,.53391,1.77951c.02879.33293.03906.66747.05673.984.18227-.35379.34381-.73092.56081-1.07284a1.90279,1.90279,0,0,1,1.2384-.864,1.4738,1.4738,0,0,1,1.66723.91911,3.59087,3.59087,0,0,1,.23777,1.39715c.00126.06771.00017.13546.00017.20363l.63776-.56025.05292.05354-.45077.78748a1.72124,1.72124,0,0,1,1.59232.7253,1.84053,1.84053,0,0,1-.17976-.06134,2.52157,2.52157,0,0,0-2.41378.07544.48076.48076,0,0,1-.16047.02587l.0062.00519a.68109.68109,0,0,0-.03031-.09988,2.54288,2.54288,0,0,0-.50052.09485c-.43959.165-.8714.35074-1.30631.52824q-.13683.05586-.27382.11136l-.00215-.12165c.08517-.07077.17219-.13945.25522-.21265a3.351,3.351,0,0,1,1.679-.859c.27612-.04516.56022-.04151.863-.06151.01858-.23713.05327-.47748.05288-.71777a2.788,2.788,0,0,0-.294-1.38069,1.23965,1.23965,0,0,0-1.654-.56939,1.43578,1.43578,0,0,0-.75088.52583,3.14561,3.14561,0,0,0-.63823,1.34869C12.66146,12.49137,12.5665,12.76465,12.48255,13.0407Z"/><path class="cls-14" d="M8.76961,1.69863a.818.818,0,0,1-.08455.21888A1.964,1.964,0,0,0,8.35329,3.418,4.16251,4.16251,0,0,0,9.77457,6.14683a3.62552,3.62552,0,0,0,2.97913.89607,1.107,1.107,0,0,0,1.08708-.89759c.00834-.04612.07574-.08155.11569-.122a1.19107,1.19107,0,0,1-.73788,1.51612,3.79,3.79,0,0,1-3.80394-.54183A4.2161,4.2161,0,0,1,8.04487,4.66255a3.05273,3.05273,0,0,1-.00119-2.07917A1.48056,1.48056,0,0,1,8.76961,1.69863Z"/><path class="cls-15" d="M10.114,7.91067c-.20139.3-.42461.58781-.60015.90224a10.14259,10.14259,0,0,0-1.19346,3.28281,8.01447,8.01447,0,0,0,.4542,4.56565,1.59784,1.59784,0,0,0,.19917.2876l-.29654.959c-.117-.14058-.23211-.26232-.32864-.39732a5.11657,5.11657,0,0,1-.93074-3.868A13.84525,13.84525,0,0,1,9.368,8.63519c.1392-.23453.30077-.45608.43428-.6936C9.90233,7.76366,9.99416,7.76107,10.114,7.91067Z"/><path class="cls-16" d="M12.42782,14.7469c-.3222.20538-.64612.40812-.9663.6166a3.25555,3.25555,0,0,0-1.51947,3.59838c.05089.25668.08676.51634.12957.77462q-.24.25377-.48.50752c-.13588.14356-.2454.10849-.33493-.05078a.461.461,0,0,1-.0513-.1097,4.5907,4.5907,0,0,1,.14314-3.18212,3.27244,3.27244,0,0,1,1.82733-1.69433,2.69862,2.69862,0,0,0,.61051-.37414A.52817.52817,0,0,1,12.42782,14.7469Z"/><path class="cls-15" d="M10.21213,4.50869a.84449.84449,0,0,1-.00448-.90248,1.582,1.582,0,0,1,1.52225-.7325,2.08807,2.08807,0,0,1,1.389.84989,11.87619,11.87619,0,0,1,.7504,1.24456.37887.37887,0,0,1,.01434.14861c-.29139-.34584-.56568-.70814-.87872-1.03312a2.08555,2.08555,0,0,0-1.30019-.652C11.15365,3.37223,10.25286,3.782,10.21213,4.50869Z"/><path class="cls-17" d="M13.52046,15.23158c.18-.04172.3599-.08421.54014-.125a1.85583,1.85583,0,0,0,1.09382-.71238,1.838,1.838,0,0,1,1.34393-.78577,1.106,1.106,0,0,1,1.22135,1.03782c.00319.02822-.03755.0614-.05782.09226a4.94126,4.94126,0,0,0-.45038-.39364,1.36575,1.36575,0,0,0-1.83179.255,2.48111,2.48111,0,0,1-1.10563.65353A.91433.91433,0,0,1,13.52046,15.23158Z"/><path class="cls-18" d="M15.53387,17.1726l-.71133.72642a3.07242,3.07242,0,0,0,.38174-.01945,3.39862,3.39862,0,0,0,1.858-1.11368,1.39633,1.39633,0,0,1,.18014-.13749,4.26579,4.26579,0,0,1-.32549.49977,3.17641,3.17641,0,0,1-1.80142,1.10246,1.62074,1.62074,0,0,1-1.16207-.25239c.41229-.2697.79653-.53576,1.19775-.77309C15.25046,17.14644,15.40484,17.18094,15.53387,17.1726Z"/><path class="cls-17" d="M17.04838,17.28653c-.019.10774-.04168.215-.05617.32334-.04432.33138.0392.4272.3704.41906a1.2437,1.2437,0,0,0,.87259-.43277c.28772-.3047.52253-.65926.78191-.991.04665-.05966.10174-.11272.15293-.16883a2.50705,2.50705,0,0,1-1.877,1.91381,1.31373,1.31373,0,0,1-1.07192-.34079Z"/><path class="cls-14" d="M14.07122,7.24443A1.64962,1.64962,0,0,1,12.46,8.8394a3.48785,3.48785,0,0,1-1.39-.361c-.04661-.02279-.0759-.081-.11323-.12283.25071.05754.49979.12372.75241.171a2.00991,2.00991,0,0,0,2.08355-.89729C13.88842,7.50317,13.97853,7.37282,14.07122,7.24443Z"/><path class="cls-18" d="M14.98564,17.05494a5.1522,5.1522,0,0,1,.29013-.43721,1.37523,1.37523,0,0,0,.38233-1.04342c.35844.042.45315.17152.27671.45931A2.75776,2.75776,0,0,1,14.98564,17.05494Z"/><path class="cls-18" d="M14.72776,17.22775l.25853-.17353Z"/><path class="cls-18" d="M17.29622,16.56474l.0793-.1259Z"/><path class="cls-14" d="M8.89693,1.59929,8.841,1.64363Z"/><path class="cls-14" d="M14.132,7.12256l-.0364.06531Z"/><path class="cls-14" d="M10.77994,8.27948l-.06535-.04081Z"/><path class="cls-17" d="M17.74822,14.915l.03373.07309Z"/><path class="cls-17" d="M13.333,15.16828l.0722.03355Z"/><path class="cls-18" d="M17.24059,16.62973l.057-.067Z"/><path class="cls-14" d="M12.48255,13.0407c.08395-.276.17891-.54933.24942-.82878a3.14561,3.14561,0,0,1,.63823-1.34869,1.43578,1.43578,0,0,1,.75088-.52583c-.02489.06118-.03348.13954-.07714.18091a2.69214,2.69214,0,0,0-.75929,1.80261c-.0555.60275-.04631,1.21146-.06565,1.81754l.00215.12165-.55288.38659Z"/><path class="cls-19" d="M16.26568,10.21454c-.05871-.10227-.11551-.2057-.17648-.3066a1.38207,1.38207,0,0,0-1.028-.717,1.257,1.257,0,0,0-.49779.05813c-.09739.02862-.18653.06973-.21453-.04293a.39987.39987,0,0,1,.04366-.29145c.04031-.05908.15825-.07984.245-.09032A1.46057,1.46057,0,0,1,16.26568,10.21454Z"/><path class="cls-13" d="M15.32591,13.62035l.01615.04807-.00995-.04288Z"/><path class="cls-20" d="M11.81337,16.13728a3.31417,3.31417,0,0,1,.259-.46748.32446.32446,0,0,1,.26235-.08251c.14514.02118.17594.15248.054.23329-.18118.12008-.38179.21086-.57413.3141Z"/><polygon class="cls-20" points="11.815 16.135 11.808 16.146 11.813 16.137 11.815 16.135"/><path class="cls-21" d="M11.995,13.54109a5.58208,5.58208,0,0,1-.30119.87309.49788.49788,0,0,1-.85866.08956,1.905,1.905,0,0,1-.153-2.10161.50567.50567,0,0,1,.84738-.05781A2.21611,2.21611,0,0,1,11.995,13.54109ZM11.27,13.14746l.038-.01477a2.46617,2.46617,0,0,0-.18874-.46267.23352.23352,0,0,0-.44319.03891,1.30611,1.30611,0,0,0-.06482.557c.02068.2448.20389.43682.35353.43483.1645-.00218.2954-.21348.30511-.49285C11.27058,13.1878,11.27,13.16762,11.27,13.14746Z"/><path class="cls-17" d="M10.05433,10.15852l-.5854.4156a1.76348,1.76348,0,0,1,1.32356-1.75475.90654.90654,0,0,1,.17568.02,2.49315,2.49315,0,0,1-.22961.21883,1.91109,1.91109,0,0,0-.627.90884.41832.41832,0,0,0,.00292.14936l.00157-.00719Z"/><path class="cls-22" d="M10.23246,14.55414A3.8656,3.8656,0,0,1,9.391,12.7789a7.2589,7.2589,0,0,1-.09323-1.13963.89174.89174,0,0,1,.31844-.68745c-.01857.29133-.042.58245-.0548.874a4.80226,4.80226,0,0,0,.55578,2.39214A2.55693,2.55693,0,0,1,10.23246,14.55414Z"/><path class="cls-7" d="M13.219,14.13846c.01934-.60608.01015-1.21479.06565-1.81754a2.69214,2.69214,0,0,1,.75929-1.80261c.04366-.04137.05225-.11973.07714-.18091a1.23965,1.23965,0,0,1,1.654.56939,2.788,2.788,0,0,1,.294,1.38069c.00039.24029-.0343.48064-.05288.71777-.30277.02-.58687.01635-.863.06151a3.351,3.351,0,0,0-1.679.859C13.39119,13.999,13.30417,14.06769,13.219,14.13846Z"/><path class="cls-11" d="M10.05432,10.15852l.06172-.04935Z"/><path class="cls-23" d="M11.27,13.14746c0,.02016.00061.04034-.00009.06047-.00971.27937-.14061.49067-.30511.49285-.14964.002-.33285-.19-.35353-.43483a1.30611,1.30611,0,0,1,.06482-.557.23352.23352,0,0,1,.44319-.03891,2.46617,2.46617,0,0,1,.18874.46267Z"/></svg>