<svg id="Layer_1" data-name="Layer 1" xmlns="http://www.w3.org/2000/svg" viewBox="0 0 25 26.86862"><defs><style>.cls-1{fill:#f58b2c;}.cls-2{fill:#201f1f;}.cls-3{fill:#fefefe;}.cls-4{fill:#e32625;}.cls-5{fill:#f8e306;}.cls-6{fill:#b6b2b2;}.cls-7{fill:#f48b2c;}.cls-8{fill:#212020;}.cls-9{fill:#23221e;}.cls-10{fill:#fdfdfd;}</style></defs><title>logo-mini</title><path class="cls-1" d="M10.47635,23.55361a2.58027,2.58027,0,0,0-.85-.88082,1.91155,1.91155,0,0,0-1.48812-.1385,5.73728,5.73728,0,0,0-1.7265.76667c-.0402.026-.08276.04827-.149.0866.0219-.21555.04534-.40878.06056-.60266a4.04038,4.04038,0,0,0-.2775-2.08884,1.40315,1.40315,0,0,0-1.5356-.75221,6.68187,6.68187,0,0,0-2.27277.77535c-.22662.11284-.44131.24962-.68284.354.16009-.27531.3212-.55.48-.82606a6.25971,6.25971,0,0,0,.7073-1.77534,1.424,1.424,0,0,0-.84524-1.63519,5.63966,5.63966,0,0,0-1.44844-.4664c-.09971-.02134-.20056-.03739-.3276-.06079.24719-.167.48071-.32081.71006-.48059A5.92867,5.92867,0,0,0,1.988,14.85505a1.55306,1.55306,0,0,0,.48052-.96045,1.15668,1.15668,0,0,0-.07931-.45446A2.877,2.877,0,0,0,1.192,12.07651C.80018,11.83413.40812,11.5922,0,11.34007c.23326-.0784.47131-.15257.70518-.23816a5.72529,5.72529,0,0,0,1.67526-.834.98654.98654,0,0,0,.48315-.94952,3.26439,3.26439,0,0,0-.32335-.86383A7.44621,7.44621,0,0,0,1.39848,6.88111a1.76191,1.76191,0,0,1-.11165-.15882c.19051.0159.35618.02661.52113.044a4.92347,4.92347,0,0,0,2.13123-.17779,1.60351,1.60351,0,0,0,.621-.35294.96193.96193,0,0,0,.27491-.85436A9.16547,9.16547,0,0,0,4.3328,3.44949a1.93865,1.93865,0,0,0-.17328-.311l.0404-.04439c.13513.09281.27071.185.40531.27856a4.31485,4.31485,0,0,0,1.72515.81093,1.179,1.179,0,0,0,1.43851-.74884,4.5462,4.5462,0,0,0,.334-1.48581c.02165-.332.03753-.66434.05355-.95248l.86718.819a2.83525,2.83525,0,0,0-.75914,2.57522c.07243.47.222.92811.33673,1.3916a17.67082,17.67082,0,0,0-1.53078,1.0015A8.705,8.705,0,0,0,4.191,11.41017a6.70629,6.70629,0,0,0-.21373,1.83947,6.72168,6.72168,0,0,0,.38152,2.42825c.10327.26506.17444.54295.28305.80557a8.173,8.173,0,0,0,3.02608,3.76213,7.74885,7.74885,0,0,0,1.76146.93758c.03994.16885.07148.34025.12153.506a.76928.76928,0,0,0,.76748.5805.69551.69551,0,0,0,.45108-.23543c.1191-.11655.23547-.23589.353-.354l.03621.02644A6.95836,6.95836,0,0,0,10.47635,23.55361Z" transform="translate(0 0)"/><path class="cls-1" d="M12.72575,1.057q.215-.43326.42962-.86673c.02405-.0488.04287-.10018.081-.19031.05042.13024.09077.226.12484.32386a5.14489,5.14489,0,0,0,.79194,1.54036,1.258,1.258,0,0,0,1.16538.58481,1.65267,1.65267,0,0,0,.49294-.13514,3.23909,3.23909,0,0,0,.89595-.58372A8.472,8.472,0,0,0,17.86875.40238.61145.61145,0,0,1,17.93706.328c-.04744.39827-.10878.8-.13962,1.204a10.406,10.406,0,0,0-.03757,1.20584,2.70665,2.70665,0,0,0,.31924,1.26792,1.05381,1.05381,0,0,0,.64319.48813,3.18691,3.18691,0,0,0,1.06106.10746,7.75431,7.75431,0,0,0,1.84515-.34253c-.14373.26526-.28354.51173-.41246.76378a4.44889,4.44889,0,0,0-.47969,1.37568,1.54294,1.54294,0,0,0,.10939,1.013,1.16841,1.16841,0,0,0,.94584.591,6.29648,6.29648,0,0,0,1.21937.0081c.45592-.04114.90619-.14483,1.38342-.22546-.083.08078-.16126.15845-.24115.23436a5.91024,5.91024,0,0,0-1.00942,1.18346,2.28049,2.28049,0,0,0-.41906,1.383,2.33158,2.33158,0,0,0,.37478,1.03822,5.22313,5.22313,0,0,0,1.38174,1.44983c.05517.04113.10736.08625.15516.12486-.37294.24879-.74861.47987-1.10252.7405a3.72449,3.72449,0,0,0-1.09565,1.15075,1.515,1.515,0,0,0,.022,1.41084,4.59284,4.59284,0,0,0,.88216,1.2956,10.98892,10.98892,0,0,0,1.57572,1.419A.75545.75545,0,0,1,25,19.313c-.09962-.02666-.15666-.04215-.21381-.05719a8.27935,8.27935,0,0,0-1.8942-.30795,3.74019,3.74019,0,0,0-1.405.17767,1.38547,1.38547,0,0,0-.97514,1.30158,6.332,6.332,0,0,0,.27866,2.411c.00515.01951.0049.04045.01187.10274a6.76066,6.76066,0,0,0-2.49974-1.7026l-.03273.7052-.04933-1.47964a9.15214,9.15214,0,0,0,1.09581-.44848,3.52883,3.52883,0,0,0,1.9492-3.12929,4.73109,4.73109,0,0,0-.28731-1.6304c.07042-.40855.16371-.81471.20695-1.22612a8.13487,8.13487,0,0,0-.43767-3.55224A7.97713,7.97713,0,0,0,18.55713,7.154a1.07158,1.07158,0,0,0-.16943-.1056c-.10338-.25683-.19988-.51672-.31238-.7695a.56287.56287,0,0,0-.45224-.40318,2.33863,2.33863,0,0,0,.37466-1.5643,1.19436,1.19436,0,0,0-.29541-.763.61185.61185,0,0,0-.97707.02907.951.951,0,0,0-.16975.86321,4.06227,4.06227,0,0,1,.06788.70238c.00481.15211-.06023.19646-.19748.13464a1.63529,1.63529,0,0,1-.40191-.24987,3.72607,3.72607,0,0,1-.86745-1.16266c-.19928-.39732-.39938-.79587-.62825-1.17636A3.628,3.628,0,0,0,12.72575,1.057Z" transform="translate(0 0)"/><path class="cls-2" d="M12.72575,1.057A3.628,3.628,0,0,1,14.5283,2.68883c.22887.38049.429.779.62825,1.17636A3.72607,3.72607,0,0,0,16.024,5.02785a1.63529,1.63529,0,0,0,.40191.24987c.13725.06182.20229.01747.19748-.13464a4.06227,4.06227,0,0,0-.06788-.70238.951.951,0,0,1,.16975-.86321.61185.61185,0,0,1,.97707-.02907,1.19436,1.19436,0,0,1,.29541.763,2.33863,2.33863,0,0,1-.37466,1.5643.56287.56287,0,0,1,.45224.40318c.1125.25278.209.51267.31238.7695.09514.38117.201.76.28322,1.144a15.3261,15.3261,0,0,0,.60023,2.489c.59811,1.5133,1.14118,3.04835,1.70715,4.57435a4.73109,4.73109,0,0,1,.28731,1.6304,3.52883,3.52883,0,0,1-1.9492,3.12929,9.15214,9.15214,0,0,1-1.09581.44848l.04933,1.47964c-.04713.406-.07473.81555-.14613,1.21728a3.52764,3.52764,0,0,1-.63529,1.515A2.48821,2.48821,0,0,1,15.39937,25.686a.53349.53349,0,0,0-.477.19856,2.50293,2.50293,0,0,1-1.51834.91017,3.09836,3.09836,0,0,1-1.38181-.009,2.14081,2.14081,0,0,1-1.449-1.37055,2.73643,2.73643,0,0,1-.139-1.49217c.01954-.12227.02841-.24625.04218-.36944a6.95836,6.95836,0,0,1,.68238-1.84688l-.03621-.02644c-.11757.11811-.23394.23745-.353.354a.69551.69551,0,0,1-.45108.23543.76928.76928,0,0,1-.76748-.5805c-.05-.1658-.08159-.3372-.12153-.506-.03236-.24046-.06131-.48145-.09936-.721a.34814.34814,0,0,0-.07571-.18194,6.5037,6.5037,0,0,1-1.24156-1.946.50761.50761,0,0,0-.01447-.10131,7.5127,7.5127,0,0,1-.20344-3.97309A13.86067,13.86067,0,0,1,9.091,10.57546,11.49537,11.49537,0,0,1,10.3067,8.521a4.01806,4.01806,0,0,0,.22348-.34391c-.21692-.14371-.43066-.26253-.61683-.415a7.25977,7.25977,0,0,1-.517-.51111,8.16145,8.16145,0,0,1-.79521-1.46865c-.11468-.46349-.2643-.9216-.33673-1.3916a2.83525,2.83525,0,0,1,.75914-2.57522,3.19707,3.19707,0,0,1,.89058-.55152A4.49722,4.49722,0,0,1,11.838.87575,7.03815,7.03815,0,0,1,12.72575,1.057Zm4.26573,15.65029c.09918-.04917.1952-.10662.29814-.146a.46451.46451,0,0,1,.65787.24834,1.96878,1.96878,0,0,1,.16863.63563.79676.79676,0,0,1-.55673.8323c-.22138.07612-.45232.12445-.679.18526a.599.599,0,0,0-.57447.15331.35208.35208,0,0,1-.08782.05432c-.36327.21441-.72658.42875-1.10218.65037a1.81451,1.81451,0,0,0,.87247.30923,2.251,2.251,0,0,0,1.2198-.29022A3.76557,3.76557,0,0,0,18.93473,17.54a1.60757,1.60757,0,0,0,.23656-1.01759,1.32751,1.32751,0,0,0-1.00353-1.10888,1.26159,1.26159,0,0,0-1.31706.42988,2.99341,2.99341,0,0,1-1.39891.77709,1.53414,1.53414,0,0,1-.3696.05009,1.69986,1.69986,0,0,1-1.25587-.56135,2.82757,2.82757,0,0,0-.32927-.241.6076.6076,0,0,0-.75581.12409,1.508,1.508,0,0,1-.494.32728,3.3204,3.3204,0,0,0-1.13716.639,3.78088,3.78088,0,0,0-1.18191,1.69814,4.80551,4.80551,0,0,0-.09379,2.34873,3.84737,3.84737,0,0,0,.18584.70119c.08243.20985.22858.22823.39165.07186.18519-.17758.35833-.36774.5367-.55243.35614-.2537.70361-.52079,1.07029-.7582a14.76638,14.76638,0,0,1,2.23672-1.00869c.50809-.22028.99642-.48612,1.49359-.73158a3.76078,3.76078,0,0,0,.58785-.38151c.31138-.29311.59493-.61654.87993-.93638a.81624.81624,0,0,0,.15061-.2933c.06224-.19584-.007-.3013-.20652-.35386C17.10368,16.74746,17.048,16.72593,16.99148,16.70733ZM14.36872,16.286a1.18281,1.18281,0,0,0,.95283.174,2.8555,2.8555,0,0,0,1.40528-.758,1.46734,1.46734,0,0,1,2.21373-.03163,5.61883,5.61883,0,0,1,.39443.49781c.00917.04039.01726.08107.02769.12113a1.57672,1.57672,0,0,1-.11326,1.11171c-.17458.35437-.40953.679-.61807,1.01665a4.84772,4.84772,0,0,1-.9981.90185c-.00744.00485-.00482.02512-.00876.04995a1.31454,1.31454,0,0,0,1.19548.35576,2.38006,2.38006,0,0,0,1.52946-1.02368,2.75584,2.75584,0,0,0,.54272-1.36883,3.25,3.25,0,0,0-.11071-1.56605c-.23256-.72638-.48946-1.44572-.75976-2.15905-.29581-.78067-.62559-1.54841-.928-2.32664a15.65209,15.65209,0,0,1-.75543-3.069,6.51315,6.51315,0,0,0-.485-1.65324.66976.66976,0,0,0-.50756-.426,3.5964,3.5964,0,0,1-.52379-.19219.93346.93346,0,0,0,.79225-.85143,3.639,3.639,0,0,0,.04335-.78794,1.041,1.041,0,0,0-.13185-.43279c-.15413-.28763-.43-.28046-.60215-.00388a.68229.68229,0,0,0-.03083.54384,1.93875,1.93875,0,0,1,.02659.94875.31914.31914,0,0,1-.38555.26929,1.26578,1.26578,0,0,1-.535-.19283,3.97358,3.97358,0,0,1-1.13921-1.417,15.86328,15.86328,0,0,0-.82777-1.467,2.79966,2.79966,0,0,0-2.00286-1.32487,3.97613,3.97613,0,0,0-2.174.43413,1.86445,1.86445,0,0,0-.74867.543,2.6302,2.6302,0,0,0-.53153,2.1711,5.54836,5.54836,0,0,0,.44457,1.54711,3.74717,3.74717,0,0,0,1.85045,2.07229,4.60326,4.60326,0,0,0,2.77212.3796,2.1892,2.1892,0,0,0,1.047-.42136,1.29714,1.29714,0,0,0,.35775-1.70435,5.14393,5.14393,0,0,0-1.035-1.47642,2.43936,2.43936,0,0,0-.95075-.61679,1.34924,1.34924,0,0,0-1.30115.19153.65465.65465,0,0,0-.105,1.09753,3.68784,3.68784,0,0,0,.4781.39736c-.33214.11779-.82955-.23742-1.02954-.75151A1.10251,1.10251,0,0,1,11.8157,3.934a1.72966,1.72966,0,0,1,1.76015.10366,2.94721,2.94721,0,0,1,.71041.57193c.31253.35.57893.74111.86487,1.11481q.0717.13687.14339.27375A1.70224,1.70224,0,0,1,15.325,7.71326c-.17394.24926-.33583.50806-.52421.74589a2.31841,2.31841,0,0,1-1.78338.83349,1.897,1.897,0,0,1-.663-.14c-.32068-.10409-.63258-.23521-.94822-.35483l-.41877-.247-.19816-.15258c-.22512.32324-.45908.622-.6534.94456A15.91294,15.91294,0,0,0,8.159,14.064a6.09091,6.09091,0,0,0-.13948,2.20631,5.6185,5.6185,0,0,0,.91116,2.40213c.13828.20371.30246.38984.469.60218l.2891-.98148a4.736,4.736,0,0,1,.601-.90282,5.67858,5.67858,0,0,1,1.15289-.94c.26076-.10487.52616-.19982.78038-.31868a1.40913,1.40913,0,0,0,.36718-.25494.7706.7706,0,0,1,.70884-.26185,3.18191,3.18191,0,0,1,.526.21187Zm3.08434,3.15442c-.19914.08541-.38544.17861-.58058.24638a1.87821,1.87821,0,0,1-1.47871-.02308.31808.31808,0,0,0-.19832-.023,6.14331,6.14331,0,0,0-2.09337.996,3.60719,3.60719,0,0,0-1.0877,1.24732,3.23551,3.23551,0,0,0-.40421,2.14763,1.54676,1.54676,0,0,0,1.0201,1.24231,3.95846,3.95846,0,0,0,1.64786.1543c.37356-.01735.74625-.05789,1.11987-.06792a2.50552,2.50552,0,0,0,1.06705-.24165A2.47211,2.47211,0,0,0,17.713,23.452a6.74263,6.74263,0,0,0,.157-2.86959A2.6639,2.6639,0,0,0,17.45306,19.44041Z" transform="translate(0 0)"/><path class="cls-3" d="M8.60116,5.78228a8.16145,8.16145,0,0,0,.79521,1.46865,6.43977,6.43977,0,0,0-2.26,1.87089,6.61919,6.61919,0,0,0-1.1478,6.14339,5.91983,5.91983,0,0,0,1.534,2.63183c.15514.15407.3264.29191.49023.43723a6.5037,6.5037,0,0,0,1.24156,1.946.34814.34814,0,0,1,.07571.18194c.03805.23955.067.48054.09936.721a7.74885,7.74885,0,0,1-1.76146-.93758,8.173,8.173,0,0,1-3.02608-3.76213c-.10861-.26262-.17978-.54051-.28305-.80557a6.72168,6.72168,0,0,1-.38152-2.42825A6.70629,6.70629,0,0,1,4.191,11.41017,8.705,8.705,0,0,1,7.07038,6.78378,17.67082,17.67082,0,0,1,8.60116,5.78228Z" transform="translate(0 0)"/><path class="cls-3" d="M20.9783,15.25569c-.566-1.526-1.109-3.061-1.70715-4.57435a15.3261,15.3261,0,0,1-.60023-2.489c-.08226-.38393-.18808-.7628-.28322-1.144a1.07158,1.07158,0,0,1,.16943.1056,7.97713,7.97713,0,0,1,2.19045,3.32336,8.13487,8.13487,0,0,1,.43767,3.55224C21.142,14.441,21.04872,14.84714,20.9783,15.25569Z" transform="translate(0 0)"/><path class="cls-3" d="M11.44267,16.45027a5.67858,5.67858,0,0,0-1.15289.94,4.736,4.736,0,0,0-.601.90282.36993.36993,0,0,1-.04841-.06547,9.085,9.085,0,0,1-.55326-1.609,7.95192,7.95192,0,0,1-.21589-1.72724,12.078,12.078,0,0,1,.10766-1.53235A9.91914,9.91914,0,0,1,9.612,10.95439a9.3647,9.3647,0,0,1,.89913-1.728c.14924-.23133.317-.45073.4763-.67555l.41877.247c.01442.02221.02365.05284.044.0654a4.58553,4.58553,0,0,0,1.54672.64465,1.90868,1.90868,0,0,0,1.24351-.09546A2.12976,2.12976,0,0,0,15.325,7.71325a1.70222,1.70222,0,0,0-.03044-1.71506q-.0716-.13692-.14339-.27375a1.50308,1.50308,0,0,0-.07188-.25712,8.51087,8.51087,0,0,0-.41216-.81563,2.90286,2.90286,0,0,0-1.527-1.39828,1.76425,1.76425,0,0,0-1.72554.27143,1.18363,1.18363,0,0,0-.31138,1.563c.2.51409.6974.8693,1.02954.75151a3.68784,3.68784,0,0,1-.4781-.39736.65465.65465,0,0,1,.105-1.09753,1.34924,1.34924,0,0,1,1.30115-.19153,2.43936,2.43936,0,0,1,.95075.61679,5.14393,5.14393,0,0,1,1.035,1.47642.92152.92152,0,0,0-.00489.10413,1.13652,1.13652,0,0,1-.858,1.18424,3.89482,3.89482,0,0,1-2.098-.04442A4.41786,4.41786,0,0,1,10.1254,6.19562a3.708,3.708,0,0,1-.8249-1.41218,5.35621,5.35621,0,0,1-.25373-1.34423,1.88187,1.88187,0,0,1,.47975-1.43528c.10367-.12.21855-.23039.32829-.34518a3.97613,3.97613,0,0,1,2.174-.43413,2.79966,2.79966,0,0,1,2.00286,1.32487,15.86328,15.86328,0,0,1,.82777,1.467,3.97358,3.97358,0,0,0,1.13921,1.417,1.26578,1.26578,0,0,0,.535.19283.31914.31914,0,0,0,.38555-.26929,1.93875,1.93875,0,0,0-.02659-.94875.68229.68229,0,0,1,.03083-.54384c.17211-.27658.448-.28375.60215.00388a1.041,1.041,0,0,1,.13185.43279,3.639,3.639,0,0,1-.04335.78794.93346.93346,0,0,1-.79225.85143,3.5964,3.5964,0,0,0,.52379.19219.66976.66976,0,0,1,.50756.426,6.51315,6.51315,0,0,1,.485,1.65324,15.65209,15.65209,0,0,0,.75543,3.069c.30246.77823.63224,1.546.928,2.32664.2703.71333.5272,1.43267.75976,2.15905a3.25,3.25,0,0,1,.11071,1.56605c-.01339.01527-.03325.02835-.03924.04612a3.64423,3.64423,0,0,1-1.09085,1.59964,1.60117,1.60117,0,0,1-.97654.41948c-.22108.01213-.39654-.06777-.36448-.35571a1.18356,1.18356,0,0,1,.0574-.26259c.04365-.12325.10125-.24157.15291-.362.20854-.33765.44349-.66228.61807-1.01665a1.57672,1.57672,0,0,0,.11326-1.11171c-.01043-.04006-.01852-.08074-.02769-.12113a2.122,2.122,0,0,0-.212-.78936,1.12679,1.12679,0,0,0-1.05583-.71928,1.95413,1.95413,0,0,0-1.53994.74928,4.56313,4.56313,0,0,1-.39726.39119,2.0355,2.0355,0,0,1-1.76125.48594l-.54364-.45932.00014-.07842.4195-.29921c.04365-.0182.08846-.034.13076-.055.36671-.18136.7268-.3777,1.10107-.54173a3.565,3.565,0,0,1,1.234-.29427l-.03226.16966a2.98142,2.98142,0,0,1,3.04291-.08423,2.04009,2.04009,0,0,0-1.85295-.77448c.182-.29146.33956-.542.49442-.79416a.41892.41892,0,0,0,.0311-.10214.46351.46351,0,0,0-.10754.01841.354.354,0,0,0-.1042.06834c-.1878.17781-.37358.35775-.55107.52837,0-.15315.00162-.32678-.00032-.50038a3.32516,3.32516,0,0,0-.25059-1.25927,1.62465,1.62465,0,0,0-2.25742-.82887,2.56918,2.56918,0,0,0-1.16153,1.21149c-.12625.2659-.22042.547-.33438.8346-.01841-.38584-.02812-.75877-.05573-1.13036a3.90384,3.90384,0,0,0-.52835-1.83007,1.37454,1.37454,0,0,0-2.31093-.23825,2.826,2.826,0,0,0-.70125,1.45352,1.33255,1.33255,0,0,1-.47478.97028.16286.16286,0,0,0-.02683.03188.47555.47555,0,0,0,.05608.75672c.06018.05527.14367.08469.20633.13791a.25753.25753,0,0,1,.09551.14037,4.38987,4.38987,0,0,0,.5032,1.565A6.8155,6.8155,0,0,0,11.401,16.3765Zm6.22746-5.41952.06587-.028c-.04841-.15262-.08454-.31049-.14732-.45694A1.60762,1.60762,0,0,0,15.9367,9.519a.82014.82014,0,0,0-.33344.10093c-.11925.06541-.12211.1972-.0476.32964.07249.12886.146.07316.23687.02415a.8757.8757,0,0,1,.63083-.05486,1.62047,1.62047,0,0,1,1.11733.89274C17.57922,10.887,17.62675,10.95782,17.67013,11.03075Z" transform="translate(0 0)"/><path class="cls-4" d="M17.45306,19.44041a2.6639,2.6639,0,0,1,.417,1.142,6.74263,6.74263,0,0,1-.157,2.86959,2.47211,2.47211,0,0,1-1.248,1.66666,2.50552,2.50552,0,0,1-1.06705.24165c-.37362.01-.74631.05057-1.11987.06792a3.95846,3.95846,0,0,1-1.64786-.1543,1.54676,1.54676,0,0,1-1.0201-1.24231,3.23551,3.23551,0,0,1,.40421-2.14763,3.60719,3.60719,0,0,1,1.0877-1.24732,6.14331,6.14331,0,0,1,2.09337-.996.31808.31808,0,0,1,.19832.023,1.87821,1.87821,0,0,0,1.47871.02308C17.06762,19.619,17.25392,19.52582,17.45306,19.44041Z" transform="translate(0 0)"/><path class="cls-5" d="M13.49705,15.86829a2.82757,2.82757,0,0,1,.32927.241,1.69986,1.69986,0,0,0,1.25587.56135,1.53414,1.53414,0,0,0,.3696-.05009,2.99341,2.99341,0,0,0,1.39891-.77709,1.26159,1.26159,0,0,1,1.31706-.42988,1.32751,1.32751,0,0,1,1.00353,1.10888A1.60757,1.60757,0,0,1,18.93473,17.54a.3155.3155,0,0,0-.06782.0441c-.24045.265-.47348.53707-.72052.79574a2.93581,2.93581,0,0,1-1.01188.67623,2.19219,2.19219,0,0,1-1.08836.18648,2.91477,2.91477,0,0,0,.83427-.77966c.22665-.06081.45759-.10914.679-.18526a.79676.79676,0,0,0,.55673-.8323,1.96878,1.96878,0,0,0-.16863-.63563.46451.46451,0,0,0-.65787-.24834c-.10294.03934-.199.09679-.29814.146a2.23559,2.23559,0,0,1-.05982.616,2.3013,2.3013,0,0,1-.75674.991,4.93316,4.93316,0,0,0-.42571.4133c-.49717.24546-.9855.5113-1.49359.73158A14.76638,14.76638,0,0,0,12.0189,20.4679c-.36668.23741-.71415.5045-1.07029.7582-.01451-.08841-.02751-.1771-.04379-.26518a8.08625,8.08625,0,0,1-.1796-1.56187,3.25552,3.25552,0,0,1,.972-2.29135,5.9081,5.9081,0,0,1,1.59038-1.07832A1.45285,1.45285,0,0,0,13.49705,15.86829Zm-.71939,1.54315c.20787-.11287.39394-.213.57891-.31506a.58359.58359,0,0,0,.11971-.08126c.09608-.09057.08516-.15908-.03085-.22726a.29629.29629,0,0,0-.375.07032A1.268,1.268,0,0,0,12.77766,17.41144Z" transform="translate(0 0)"/><path class="cls-5" d="M8.01276,18.33427c-.16383-.14532-.33509-.28316-.49023-.43723a5.91983,5.91983,0,0,1-1.534-2.63183,6.61919,6.61919,0,0,1,1.1478-6.14339,6.43977,6.43977,0,0,1,2.26-1.87089,7.25977,7.25977,0,0,0,.517.51111c.18617.15249.39991.27131.61683.415a4.01806,4.01806,0,0,1-.22348.34391A11.49537,11.49537,0,0,0,9.091,10.57546a13.86067,13.86067,0,0,0-1.29611,3.68441A7.5127,7.5127,0,0,0,7.99829,18.233.50761.50761,0,0,1,8.01276,18.33427Z" transform="translate(0 0)"/><path class="cls-3" d="M11.44267,16.45027,11.401,16.3765c.16379-.02532.1851-.06091.10293-.1764-.03109-.04371-.067-.084-.10077-.12578-.07137-.13284-.138-.26849-.21486-.39807a5.37216,5.37216,0,0,1-.66747-3.9905,1.89385,1.89385,0,0,1,2.20946-.5456,1.74821,1.74821,0,0,0-1.7789-.19261c-.00334-.0365-.0201-.07832-.008-.10871a1.92673,1.92673,0,0,1,1.1695-1.28244,1.09486,1.09486,0,0,1,.59617.39563,3.25153,3.25153,0,0,1,.60165,1.414,6.72654,6.72654,0,0,1,.099,1.05808c.03442.47918.06005.959.09563,1.43809a.83465.83465,0,0,0,.06846.20093,4.7779,4.7779,0,0,0,.13788,1.43382,1.37837,1.37837,0,0,0,.11351.25129l-.00014.07842a3.18191,3.18191,0,0,0-.526-.21187.7706.7706,0,0,0-.70884.26185,1.40913,1.40913,0,0,1-.36718.25494C11.96883,16.25045,11.70343,16.3454,11.44267,16.45027Zm-.12353-2.06951a2.02186,2.02186,0,0,0,.36025,1.14418.57644.57644,0,0,0,1.04436-.054,2.11166,2.11166,0,0,0-.15854-2.099.57553.57553,0,0,0-1.04017.09078A1.93909,1.93909,0,0,0,11.31914,14.38076Z" transform="translate(0 0)"/><path class="cls-6" d="M9.85481,1.65875c-.10974.11479-.22462.22515-.32829.34518a1.88187,1.88187,0,0,0-.47975,1.43528A5.35621,5.35621,0,0,0,9.3005,4.78344a3.708,3.708,0,0,0,.8249,1.41218,4.41786,4.41786,0,0,0,1.96011,1.29443,3.89482,3.89482,0,0,0,2.098.04442,1.13652,1.13652,0,0,0,.858-1.18424.92152.92152,0,0,1,.00489-.10413,1.29714,1.29714,0,0,1-.35775,1.70435,2.1892,2.1892,0,0,1-1.047.42136,4.60326,4.60326,0,0,1-2.77212-.3796A3.74717,3.74717,0,0,1,9.01918,5.91992a5.54836,5.54836,0,0,1-.44457-1.54711,2.6302,2.6302,0,0,1,.53153-2.1711A1.86445,1.86445,0,0,1,9.85481,1.65875Z" transform="translate(0 0)"/><path class="cls-6" d="M10.98738,8.55087c-.15933.22482-.32706.44422-.4763.67555a9.3647,9.3647,0,0,0-.89913,1.728,9.91914,9.91914,0,0,0-.63308,2.40473,12.078,12.078,0,0,0-.10766,1.53235,7.95192,7.95192,0,0,0,.21589,1.72724,9.085,9.085,0,0,0,.55326,1.609.36993.36993,0,0,0,.04841.06547l-.2891.98148c-.16654-.21234-.33072-.39847-.469-.60218a5.6185,5.6185,0,0,1-.91116-2.40213A6.09091,6.09091,0,0,1,8.159,14.064a15.91294,15.91294,0,0,1,1.97683-4.72115c.19432-.32259.42828-.62132.6534-.94456Z" transform="translate(0 0)"/><path class="cls-1" d="M13.49705,15.86829a1.45285,1.45285,0,0,1-.20942.16109,5.9081,5.9081,0,0,0-1.59038,1.07832,3.25552,3.25552,0,0,0-.972,2.29135,8.08625,8.08625,0,0,0,.1796,1.56187c.01628.08808.02928.17677.04379.26518-.17837.18469-.35151.37485-.5367.55243-.16307.15637-.30922.138-.39165-.07186a3.84737,3.84737,0,0,1-.18584-.70119,4.80551,4.80551,0,0,1,.09379-2.34873,3.78088,3.78088,0,0,1,1.18191-1.69814,3.3204,3.3204,0,0,1,1.13716-.639,1.508,1.508,0,0,0,.494-.32728A.6076.6076,0,0,1,13.49705,15.86829Z" transform="translate(0 0)"/><path class="cls-6" d="M11.10313,5.0878a1.18363,1.18363,0,0,1,.31138-1.563,1.76425,1.76425,0,0,1,1.72554-.27143,2.90286,2.90286,0,0,1,1.527,1.39828,8.51087,8.51087,0,0,1,.41216.81563,1.50308,1.50308,0,0,1,.07188.25712c-.28594-.3737-.55234-.76485-.86487-1.11481a2.94721,2.94721,0,0,0-.71041-.57193A1.72966,1.72966,0,0,0,11.8157,3.934,1.10251,1.10251,0,0,0,11.10313,5.0878Z" transform="translate(0 0)"/><path class="cls-6" d="M14.36872,16.286A2.0355,2.0355,0,0,0,16.13,15.80005a4.56313,4.56313,0,0,0,.39726-.39119,1.95413,1.95413,0,0,1,1.53994-.74928,1.12679,1.12679,0,0,1,1.05583.71928,2.122,2.122,0,0,1,.212.78936,5.61883,5.61883,0,0,0-.39443-.49781,1.46734,1.46734,0,0,0-2.21373.03163,2.8555,2.8555,0,0,1-1.40528.758A1.18281,1.18281,0,0,1,14.36872,16.286Z" transform="translate(0 0)"/><path class="cls-1" d="M16.88042,18.4629a2.91477,2.91477,0,0,1-.83427.77966,2.19219,2.19219,0,0,0,1.08836-.18648,2.93581,2.93581,0,0,0,1.01188-.67623c.247-.25867.48007-.53071.72052-.79574a.3155.3155,0,0,1,.06782-.0441,3.76557,3.76557,0,0,1-1.72651,1.7999,2.251,2.251,0,0,1-1.2198.29022,1.81451,1.81451,0,0,1-.87247-.30923c.3756-.22162.73891-.436,1.10218-.65037a.35208.35208,0,0,0,.08782-.05432A.599.599,0,0,1,16.88042,18.4629Z" transform="translate(0 0)"/><path class="cls-6" d="M18.63135,18.41771c-.05166.12042-.10926.23874-.15291.362a1.18356,1.18356,0,0,0-.0574.26259c-.03206.28794.1434.36784.36448.35571a1.60117,1.60117,0,0,0,.97654-.41948,3.64423,3.64423,0,0,0,1.09085-1.59964c.006-.01777.02585-.03085.03924-.04612a2.75584,2.75584,0,0,1-.54272,1.36883A2.38006,2.38006,0,0,1,18.82,19.72527a1.31454,1.31454,0,0,1-1.19548-.35576c.00394-.02483.00132-.0451.00876-.04995A4.84772,4.84772,0,0,0,18.63135,18.41771Z" transform="translate(0 0)"/><path class="cls-6" d="M15.325,7.71326a2.12976,2.12976,0,0,1-1.08457,1.69918,1.90868,1.90868,0,0,1-1.24351.09546,4.58553,4.58553,0,0,1-1.54672-.64465c-.02036-.01256-.02959-.04319-.044-.0654.31564.11962.62754.25074.94822.35483a1.897,1.897,0,0,0,.663.14,2.31841,2.31841,0,0,0,1.78338-.83349C14.98913,8.22132,15.151,7.96252,15.325,7.71326Z" transform="translate(0 0)"/><path class="cls-7" d="M15.74921,18.72763a4.93316,4.93316,0,0,1,.42571-.4133,2.3013,2.3013,0,0,0,.75674-.991,2.23559,2.23559,0,0,0,.05982-.616c.05648.0186.1122.04013.1696.05525.19953.05256.26876.158.20652.35386a.81624.81624,0,0,1-.15061.2933c-.285.31984-.56855.64327-.87993.93638A3.76078,3.76078,0,0,1,15.74921,18.72763Z" transform="translate(0 0)"/><path class="cls-2" d="M13.57383,14.06314a.83465.83465,0,0,1-.06846-.20093c-.03558-.47909-.06121-.95891-.09563-1.43809a6.72654,6.72654,0,0,0-.099-1.05808,3.25153,3.25153,0,0,0-.60165-1.414,1.09486,1.09486,0,0,0-.59617-.39563.6064.6064,0,0,0-.11555-.03736,1.27982,1.27982,0,0,0-1.173.49151,2.76161,2.76161,0,0,0-.50549,1.03711c-.04451.14948-.08878.299-.13375.45056l.76635-.55067a1.74821,1.74821,0,0,1,1.7789.19261,1.89385,1.89385,0,0,0-2.20946.5456,2.90515,2.90515,0,0,1-.2678.34015.63169.63169,0,0,0-.19431.43814,4.11543,4.11543,0,0,0,.36964,2.05436,5.40246,5.40246,0,0,0,.9748,1.55592c.03374.04182.06968.08207.10077.12578.08217.11549.06086.15108-.10293.1764A6.8155,6.8155,0,0,1,10.39,14.90244a4.38987,4.38987,0,0,1-.5032-1.565.25753.25753,0,0,0-.09551-.14037c-.06266-.05322-.14615-.08264-.20633-.13791a.47555.47555,0,0,1-.05608-.75672.16286.16286,0,0,1,.02683-.03188,1.33255,1.33255,0,0,0,.47478-.97028,2.826,2.826,0,0,1,.70125-1.45352,1.37454,1.37454,0,0,1,2.31093.23825,3.90384,3.90384,0,0,1,.52835,1.83007c.02761.37159.03732.74452.05573,1.13036.114-.28757.20813-.5687.33438-.8346a2.56918,2.56918,0,0,1,1.16153-1.21149,1.62465,1.62465,0,0,1,2.25742.82887,3.32516,3.32516,0,0,1,.25059,1.25927c.00194.1736.00032.34723.00032.50038.17749-.17062.36327-.35056.55107-.52837a.354.354,0,0,1,.1042-.06834.46351.46351,0,0,1,.10754-.01841.41892.41892,0,0,1-.0311.10214c-.15486.25218-.31241.5027-.49442.79416a2.04009,2.04009,0,0,1,1.853.77448,2.98142,2.98142,0,0,0-3.04291.08423l.03226-.16966a3.565,3.565,0,0,0-1.234.29427c-.37427.164-.73436.36037-1.10107.54173-.0423.02092-.08711.03676-.13076.055l.16192-.25185A3.60574,3.60574,0,0,1,17.287,14.03267c.12153.00876.11925-.0737.12235-.14609.01342-.31249.03924-.62593.02693-.9377a2.45557,2.45557,0,0,0-.44386-1.40905,1.40058,1.40058,0,0,0-1.45388-.478,3.0497,3.0497,0,0,0-.49511.19546,2.61376,2.61376,0,0,0-1.13036,1.58774C13.79419,13.24938,13.68653,13.657,13.57383,14.06314Z" transform="translate(0 0)"/><path class="cls-6" d="M14.40664,15.19719l-.16192.25185-.4195.29921a1.37837,1.37837,0,0,1-.11351-.25129,4.7779,4.7779,0,0,1-.13788-1.43382c.1127-.40614.22036-.81376.33922-1.21809a2.61376,2.61376,0,0,1,1.13036-1.58774,3.0497,3.0497,0,0,1,.49511-.19546.54229.54229,0,0,1-.07956.093,2.322,2.322,0,0,0-.81155,1.13409,7.09455,7.09455,0,0,0-.31111,2.40313A3.61448,3.61448,0,0,0,14.40664,15.19719Z" transform="translate(0 0)"/><path class="cls-8" d="M17.67013,11.03075c-.04338-.07293-.09091-.14373-.12944-.21914a1.62047,1.62047,0,0,0-1.11733-.89274.8757.8757,0,0,0-.63083.05486c-.09087.049-.16438.10471-.23687-.02415-.07451-.13244-.07165-.26423.0476-.32964A.82014.82014,0,0,1,15.9367,9.519a1.60762,1.60762,0,0,1,1.652,1.02677c.06278.14645.09891.30432.14732.45694Z" transform="translate(0 0)"/><path class="cls-9" d="M12.77766,17.41144a1.268,1.268,0,0,1,.29273-.55326.29629.29629,0,0,1,.375-.07032c.116.06818.12693.13669.03085.22726a.58359.58359,0,0,1-.11971.08126C13.1716,17.19847,12.98553,17.29857,12.77766,17.41144Z" transform="translate(0 0)"/><path class="cls-2" d="M11.31914,14.38076a1.93909,1.93909,0,0,1,.2059-.918.57553.57553,0,0,1,1.04017-.09078,2.11166,2.11166,0,0,1,.15854,2.099.57644.57644,0,0,1-1.04436.054A2.02186,2.02186,0,0,1,11.31914,14.38076Zm.94558-.23691a3.1877,3.1877,0,0,0-.23106-.53005c-.11566-.17641-.3056-.15235-.42815.02139a.93414.93414,0,0,0,.07648,1.015.24775.24775,0,0,0,.43006-.04435A2.99834,2.99834,0,0,0,12.26472,14.14385Z" transform="translate(0 0)"/><path class="cls-6" d="M11.40319,16.07432a5.40246,5.40246,0,0,1-.9748-1.55592,4.11543,4.11543,0,0,1-.36964-2.05436.63169.63169,0,0,1,.19431-.43814,2.90515,2.90515,0,0,0,.2678-.34015,5.37216,5.37216,0,0,0,.66747,3.9905C11.26519,15.80583,11.33182,15.94148,11.40319,16.07432Z" transform="translate(0 0)"/><path class="cls-6" d="M10.95142,10.94754l-.76635.55067c.045-.15152.08924-.30108.13375-.45056a2.76161,2.76161,0,0,1,.50549-1.03711,1.27982,1.27982,0,0,1,1.173-.49151.6064.6064,0,0,1,.11555.03736,1.92673,1.92673,0,0,0-1.1695,1.28244C10.93132,10.86922,10.94808,10.911,10.95142,10.94754Z" transform="translate(0 0)"/><path class="cls-3" d="M14.40664,15.19719a3.61448,3.61448,0,0,1-.07034-.50513,7.09455,7.09455,0,0,1,.31111-2.40313,2.322,2.322,0,0,1,.81155-1.13409.54229.54229,0,0,0,.07956-.093,1.40058,1.40058,0,0,1,1.45388.478,2.45557,2.45557,0,0,1,.44386,1.40905c.01231.31177-.01351.62521-.02693.9377-.0031.07239-.00082.15485-.12235.14609A3.60574,3.60574,0,0,0,14.40664,15.19719Z" transform="translate(0 0)"/><path class="cls-10" d="M12.26472,14.14385a2.99834,2.99834,0,0,1-.15267.46194.24775.24775,0,0,1-.43006.04435.93414.93414,0,0,1-.07648-1.015c.12255-.17374.31249-.1978.42815-.02139A3.1877,3.1877,0,0,1,12.26472,14.14385Z" transform="translate(0 0)"/></svg>