<?xml version="1.0" encoding="utf-8"?>
<!-- Generator: Adobe Illustrator 23.0.2, SVG Export Plug-In . SVG Version: 6.00 Build 0)  -->
<svg version="1.1" id="Layer_1" xmlns="http://www.w3.org/2000/svg" xmlns:xlink="http://www.w3.org/1999/xlink" x="0px" y="0px"
	 viewBox="0 0 300.3 100" style="enable-background:new 0 0 300.3 100;" xml:space="preserve">
<style type="text/css">
	.st0{fill:#F68D2D;}
	.st1{fill:#2B2724;}
	.st2{fill:#E32C28;}
	.st3{fill:#F58D2D;}
	.st4{fill:#E32B28;}
	.st5{fill:#FEFDFB;}
	.st6{fill:#FBFAFA;}
	.st7{fill:#E22927;}
	.st8{fill:#F7E202;}
	.st9{fill:#F8E303;}
	.st10{fill:#F9F8F8;}
	.st11{fill:#FBF9F8;}
	.st12{fill:#303030;}
	.st13{fill:#B6B2B2;}
	.st14{fill:#B7B3B3;}
	.st15{fill:#F38C2B;}
	.st16{fill:#B4B0B0;}
	.st17{fill:#ED892A;}
	.st18{fill:#2E2D2D;}
	.st19{fill:#36341F;}
	.st20{fill:#282727;}
	.st21{fill:#B2AEAD;}
	.st22{fill:#F5F4F3;}
</style>
<title>logo</title>
<path class="st0" d="M38.5,87.4c-0.5-0.7-1.2-1.7-2-2.5c-1.5-1.5-3.7-2-5.7-1.5s-4,1.2-5.7,2.2c-0.5,0.2-1.2,0.7-1.5,1
	c0-1.7,0-3.5,0-5.2c0-1.5-0.5-2.7-0.7-4.2c-0.7-2.2-3.2-3.7-5.7-3.2c-3.5,0.5-6.7,1.7-9.5,3.5c-0.5,0.2-0.7,0.5-1.2,0.7
	c0,0,0,0-0.2-0.2c1-2.2,2.2-4.2,3.2-6.5c0.5-1.2,0.7-2.5,1-3.7c0.2-1.7-0.5-3.5-2-4.2c-1.7-1.2-4-2.2-6.2-2.5
	c-0.5,0-0.7-0.2-1.5-0.2c0.5-0.5,1-0.7,1.5-1c2.2-1.5,4.5-3.2,6.2-5.5c1.2-1.5,1.5-3.7,0.2-5.2c-1.5-2.2-3.5-4-5.7-5.2
	C2,43.2,1,42.7,0,41.9c0.5-0.2,1-0.2,1.2-0.5c2.5-0.7,5-2,7.2-3.5c2-1,2.7-3.5,1.7-5.2l0,0c0,0,0-0.2-0.2-0.2C9,30.2,7.5,28,5.7,26
	c-0.2-0.2-0.5-0.7-1.2-1.2c0.7,0,1.2,0,1.5,0.2c2.5,0.2,5,0.2,7.5-0.5c1-0.2,1.5-0.5,2.2-0.7c1.5-0.5,2.5-2.2,2-3.7
	c-0.5-2.2-1-4.5-1.5-6.7c-0.2-0.5-0.5-1-0.7-1.7c1.7,1,3,2,4.7,2.7c1.2,0.5,2.5,1,3.7,1.2c2,0.5,4-0.7,4.7-2.5
	c0.7-2.5,1.2-4.7,1.2-7.2c0-0.7,0-1.5,0-2.5l3.2,3.2c-2,2-3.2,4.7-3,7.7c0,2.5,0.5,4.7,1.5,7c-2.5,1.2-5,3-7,5
	c-8.5,8-11.7,20.2-8.7,31.7c1.5,5.5,4.7,10.5,9,14.5c2.7,2.7,6.2,4.7,9.7,6.2c0.2,0.7,0.2,1.2,0.5,2c0.2,1.2,1.5,2.2,3,2
	c0.7,0,1.2-0.5,1.5-1c0.2-0.2,0.5-0.7,0.7-1l0.2,0.2L38.5,87.4z"/>
<path class="st1" d="M38.5,87.4l2.2-6.5l-0.2-0.2c-0.2,0.2-0.5,0.7-0.7,1c-0.7,1.2-2.5,1.5-3.5,0.5c-0.5-0.5-1-1-1-1.5
	c-0.2-0.7-0.2-1.5-0.5-2c0-0.5-0.2-1-0.2-1.7c0-0.7-0.2-1.7-1-2.2c-1-1.2-2-2.5-2.7-4c-0.5-0.7-1-1.7-1.2-2.5c0-0.5-0.2-0.7-0.2-1.2
	c-1.2-4-1.5-8-1-12c1-6.5,3.2-12.5,6.5-18.2c1.2-2.2,2.5-4.5,4-6.7c-0.7-0.5-1.5-1-2.2-1.5c-0.7-0.5-1.2-1.2-2-1.7l-3-5.5
	c-0.7-2.2-1.2-4.7-1.5-7c0-3,1-5.7,3-7.7c2.5-2,5.7-3.2,9.2-3.5c1.5,0,3,0.2,4.7,0.5c2.2,1,4,2.7,5.5,4.7c1.2,1.7,2.2,3.7,3.2,5.7
	c0.7,1.7,2,3.2,3.5,4.7c0.5,0.5,1,1,2,0.7c-0.2-1.2-0.2-2.5-0.5-3.7c-0.2-1.5,0.5-2.7,1.7-3.5c1.2-0.5,2,0,3,1.2l0.2,0.2l0,0
	c0.7,2.5,0.5,5.2-0.7,7.5c0.5,0.5,1,1.2,1.5,2c0.5,0.7,0.7,1.7,1.2,2.7c0.2,1,0.5,1.7,0.5,2.7c0.7,5.5,2.2,11,4.2,16.2
	c1.5,4,3,8,4.5,11.7c0.2,0.5,0.2,1.2,0.5,1.7c1.7,6-0.7,12.2-6,15.2c-1.5,0.7-3.2,1.5-4.7,2.2l0.2,2.7c0.2,3-0.2,6.2-1,9.2
	c-1,3.5-3.7,6.2-7.2,7.2c-0.5,0.2-1,0.2-1.5,0.2c-1.2,0-2.2,0.5-3,1.5c-2.5,2.7-6.2,3.7-9.7,2.7c-3.7-1-6.2-4.5-6.2-8.2
	C38.2,89.9,38.5,88.6,38.5,87.4z M68.9,66.2L68.9,66.2l0.2-0.5c0.2-0.5,0.5-1,0.7-1.5c1-2.5,0-5.5-2.5-6.5c-2-0.7-4.2-0.2-5.7,1.2
	c-1.2,1.2-2.5,2-4.2,2.7c-2.5,1-5.2,0.5-7-1.5c-0.5-0.2-0.7-0.7-1.2-1c-0.7-0.5-2-0.2-2.5,0.2c-0.7,0.5-1.5,1-2.5,1.5
	c-3.2,1.2-5.7,3.7-7.2,6.7c-1.7,4-2,8.5-0.5,12.7c0,0.2,0,0.2,0.2,0.5c0.2,0.7,0.7,0.7,1.2,0.2c0.7-0.7,1.2-1.2,2-2
	c2.7-2.2,5.7-4,9-5.2c2-0.7,3.7-1.5,5.7-2.2c1.5-0.7,2.7-1.5,4-2.5l1-0.7l0,0c1.5-1,3-2.5,3.7-4c0.7-1.2,0.2-1.7-1-1.7
	c1.2-1.5,3-1.2,3.7,0.5c0.2,0.7,0.5,1.5,0.5,2c0.2,1.5-0.7,2.7-2.2,3c-0.7,0.2-1.5,0.5-2.5,0.7c-0.5,0-1.2,0-1.5,0.2
	c-1.5,1-3.2,2-4.7,3c1.2,1,3,1.2,4.7,1c2.7-0.5,5.2-2.2,7.2-4.5c0.5-0.7,1-1.2,1.2-2l0,0V66.2z M42.4,60.7c0.7-0.2,1.5-0.5,2-0.7
	c0.5-0.2,1-0.5,1.5-0.7c1.7-1.5,2.5-1.7,4.5-0.7l2.7,2l0.2,0.2h0.5c1,0.5,2,0.5,3,0c1.7-0.5,3.2-1.2,4.5-2.5c1.7-2.2,5-2.7,7.2-1
	c0.7,0.5,1.2,1,1.7,1.5l0.2,0.7l0.2,0.2c0.5,1.5,0.5,3.2-0.2,4.7c-0.7,1.5-1.7,3-2.5,4.2l-3.2,3c1.2,1,2.7,1.5,4.2,1.2
	c3.7-1,6.7-3.7,7.5-7.7c0.7-2.5,0.5-5.2-0.2-8c-1-2.7-2-5.5-3-8c-2.7-6.2-4.7-12.7-5.7-19.5c-0.2-2.2-1-4.5-2-6.5
	c-0.2-0.5-0.7-1-1.2-1c-0.7-0.2-1.5-0.5-2.2-0.7c0.5-0.2,1-0.5,1.5-0.7c1.7-2,2-5,1-7.2c-0.5-0.7-1.5-0.7-2,0
	c-0.2,0.5-0.5,1.2-0.2,1.7c0,1,0.2,2,0.2,3c0,2-1.2,2.5-3,1.7c-0.2-0.2-0.5-0.2-0.7-0.5c-1-1-2-2-3-3.2c-1-1.7-2-3.5-3-5.2
	c-1.2-2.5-3-4.5-5.2-5.7c-4-2-8.5-1.5-12,1l-0.2,0.2L35,6.7c-1.5,0.7-2.5,2-3,3.5c-1,2.7-1,5.5,0,8.2c0.7,3.7,2.7,7,5.5,9.2
	c4.2,3.5,10,4.2,15.2,2.2c2.5-0.7,3.7-3.5,3-6l0,0c-0.5-2-1.7-3.7-3.2-5.2c-1-1.2-2.5-2.2-3.7-3.2c-2-1.2-4.2-0.7-6,0.7
	c-1,0.7-1.2,2.2-0.5,3l0,0l0,0c0.5,0.5,1,1,1.5,1.5c0.2,0.2,0.5,0.5,0.7,0.5c-2,0-3.7-1.5-4-3.5c0.2-3,3.7-4.5,6-4.2
	c2,0.2,3.7,1.2,5.2,2.5c1.2,1.2,2.2,2.7,3.5,4.2c0.2,0.5,0.7,1.2,1,1.7c1,2,1,4.2,0,6.2l-0.2,0.2v0.2c-0.2,0.5-0.7,1-1,1.5
	c-1.7,2.7-5,4.2-8.2,3.5c-1-0.2-2-0.5-3-0.7l-0.7-0.2l-0.2-0.2l-2.5-1.2c-0.5-0.5-0.7-0.5-1.2,0c-0.5,1-1.2,1.7-1.7,2.7
	c-4,6-6.5,13-7.7,20c-0.7,6,0.5,11.5,3.7,16c0.5,0.5,0.7,1,1.2,1.5l1.2-3.7c0.7-1,1.2-2,2-3C38.9,63.2,40.7,61.7,42.4,60.7
	L42.4,60.7L42.4,60.7z M64.2,72.2c-0.2,0-0.5,0.2-0.5,0.2c-2,1.2-4.7,1.5-7,0.5c-0.5,0-0.7,0-1.2,0c-3.2,0.7-6,2.5-8.5,4.7
	c-3,2.5-4.5,6.2-4.5,10.2c-0.2,3.2,2,6,5.2,6.5c1.5,0.2,2.7,0.2,4.2,0.2c1.5,0,2.7-0.2,4.2-0.2c3.7,0.2,7.2-2,8.5-5.7
	c1.2-3.7,1.7-7.5,1-11.5C65.7,75.2,65.2,73.7,64.2,72.2z"/>
<path class="st2" d="M110.6,70.4h-8.5c0.2-1.2,0.2-2.7,0.5-4c1.2-8.5,2.5-16.7,3.5-25.2c0-0.5,0-1.2-0.2-1.7c-0.2-1-0.7-1.7-1.2-2.7
	c0.5,0,0.7,0,1,0c4.7,0,9.5,0,14.2,0c2.2,0,4.5,0.5,6.5,1.7c2.2,1.5,3.7,3.7,4,6.5c0.7,4.2-0.5,8.5-3.5,11.7
	c-2.2,2.5-5.5,3.7-8.7,3.7c-1.7,0-3.7,0-5.5,0c-0.7,0-1,0.2-1,1C111.4,64.4,111.1,67.4,110.6,70.4z M113.1,52.9c1.5,0,3,0,4.5,0
	c2.5,0.2,4.7-1.7,5-4.2c0-0.2,0-0.5,0-0.7c0.2-1.7-1-3.2-2.5-3.5c-0.2,0-0.2,0-0.5,0c-1.5,0-3.2,0-4.7,0c-0.2,0-0.5,0.2-0.7,0.5
	C113.6,47.7,113.4,50.4,113.1,52.9z"/>
<path class="st3" d="M67.9,26c-0.5-1-1-2-1.5-2.7c-0.2-0.7-0.7-1.2-1.5-2c1.2-2.2,1.5-5,0.7-7.5l0.2,0.2c0.7,1.5,2.5,2.5,4.2,2.7
	c2.5,0.2,4.7,0,7-0.7c0.5-0.2,1.2-0.2,1.7-0.2l0,0c-0.7,1.5-1.5,3-2,4.2c-0.5,1.2-0.7,2.2-1,3.5c-0.7,2.5,0.5,5,3,5.7
	c0.5,0.2,1,0.2,1.7,0.2c2.7,0.2,5.2,0,7.7-0.7c0.2,0,0.5,0,1-0.2c-1,1.2-2.2,2.2-3.2,3.2c-0.7,1-1.5,2.2-2.2,3.5
	c-1.5,3-1,6.5,1.5,8.7c1.2,1.5,2.7,2.7,4.2,4c0.2,0.2,0.5,0.2,0.5,0.5c-2,1.5-4.2,3-6,4.7c-2.7,2-3.5,5.7-1.5,8.7l0,0
	c0,0,0,0.2,0.2,0.2c2,3.2,4.5,6,7.7,8.2c0.2,0.2,0.7,0.5,1,1l0,0c-1-0.2-2-0.5-3.2-0.5c-2.7-0.7-5.7-0.7-8.7,0
	c-2.7,0.5-4.5,2.7-4.5,5.5c-0.2,2.7,0.2,5.2,0.7,7.7c0,0.2,0,0.5,0.2,0.5c0,0.2,0,0.2,0,0.5c-2.5-2.7-5.7-4.7-9-6.2l-0.2-2.7
	c1.7-0.7,3.2-1.5,4.7-2.2c5.2-3.2,7.7-9.5,6-15.2c-0.2-0.7-0.2-1.2-0.5-1.7c0.2-1.5,0.5-2.7,0.7-4.2c0.5-5,0-10-2-14.5
	C74.2,33.2,71.4,29.2,67.9,26z"/>
<path class="st4" d="M236.4,64.7l6-5c1.7,2.2,4.5,3.5,7.2,3.2c1,0,2-0.2,2.7-0.7c1-0.5,1.7-1.7,1.2-2.7c-0.2-0.5-0.7-1-1.2-1.2
	c-1-0.5-2.2-0.7-3.5-1c-2-0.2-3.7-1-5.5-2c-4.5-3.2-5.5-9.5-2.2-13.7c0.5-0.7,1.2-1.5,2-2.2c3.2-2.2,7.2-3.2,11-2.7
	c3.2,0,6.5,1.5,8.5,4.2c0.2,0.2,0.2,0.5,0.5,0.7c0,0.2,0.2,0.2,0.2,0.5l-6,4.2c-1.5-1.5-3.7-2.5-6-2.2c-0.7,0-1.7,0.2-2.5,0.5
	c-1,0.5-1.5,1.2-1.2,2.2c0,1,0.5,1.7,1.2,2c1.2,0.5,2.2,0.7,3.5,1.2c1.2,0.2,2.2,0.5,3.5,1c4.2,1.2,6.7,5.2,5.7,9.5
	c-0.7,5.5-5.2,10-10.7,10.5c-3.2,0.7-6.7,0.2-10-1.2C239.4,68.2,237.7,66.7,236.4,64.7z"/>
<path class="st2" d="M140.3,70.9c-1.7,0-3.5-0.5-5-1.2c-2.7-1.2-4.2-4-3.7-6.7c0.2-3.2,0.7-6.2,1.2-9.2c1-4.5,5-7.7,9.5-8
	c2.5-0.5,4.7,0,7,1.2c2.5,1.2,3.7,4,3.5,6.5c-0.2,3-0.7,6-1.2,9.2c-0.7,4.2-4.2,7.5-8.2,8C142.3,70.7,141.3,70.7,140.3,70.9z
	 M139.6,62.2c-0.2,0.7,0.2,1.5,1,1.7c1.2,0.5,2.5,0,3-1.2c0-0.2,0-0.2,0.2-0.5c0.5-2.7,0.7-5.2,1-8c0-0.5-0.2-1-0.5-1.2
	c-0.5-0.5-1.2-0.7-2-0.5c-0.7,0.2-1.5,0.7-1.7,1.5C140.1,56.9,139.8,59.7,139.6,62.2L139.6,62.2z"/>
<path class="st4" d="M273.4,70.9c-1.5-0.2-3-0.5-4.5-1c-3-1-4.7-4-4.2-7.2c0.2-3,0.7-6,1.2-9.2c1-4.5,5-7.7,9.5-8
	c2.2-0.2,4.7,0,6.7,1.2c2.5,1.2,4,4,3.5,7c-0.2,3-0.7,5.7-1.2,8.7c-0.5,3.7-3.2,6.7-6.7,7.7C276.4,70.4,274.9,70.7,273.4,70.9z
	 M272.4,62.7c0.2,0.5,0.5,0.7,0.7,1.2c1,0.7,2.5,0.5,3.2-0.5c0.2-0.2,0.2-0.5,0.5-0.7c0.5-2.7,0.7-5.2,1-8c0-0.5-0.2-1-0.5-1.2
	c-0.5-0.5-1.5-0.7-2.2-0.2c-0.7,0.2-1.2,0.7-1.5,1.5C273.1,56.9,272.9,59.7,272.4,62.7L272.4,62.7z"/>
<path class="st4" d="M181.3,45.4c2,0,4.2,0.5,5.7,1.7c2,1.5,3.2,4,2.7,6.5c-0.2,2.7-0.7,5.7-1.2,8.5c-0.5,3.5-2.7,6.2-6.2,7.5
	c-3.2,1.5-7,1.5-10.2-0.2c-2.5-1.2-4-4.2-3.7-7c0.2-2.2,0.5-4.5,1-6.7c1-3.2,2.7-6,5-8.5C176.5,45.9,179,45.2,181.3,45.4z
	 M176.8,61.7c-0.2,1.7,0.7,2.5,2,2.5c1,0,2-0.7,2-2c0.5-2.5,0.7-5.2,1-7.7c0-0.5-0.2-1-0.5-1.2c-1-0.7-2.5-0.7-3.2,0.2
	c-0.2,0.2-0.5,0.5-0.5,1C177.3,56.9,177,59.4,176.8,61.7z"/>
<path class="st2" d="M155.3,67.4c0.5-3.2,0.7-6.5,1.2-9.7c1.2-7.2,3-14.5,5.2-21.7c2.2-6.7,5.5-13,9.7-18.5c1.2-1.5,2.7-3,4.2-4
	c1-0.7,2.2-1,3.5-0.7c1.5,0.2,2.2,1.7,2,3V16c-0.7,2.2-1.7,4.2-3.2,6c-2.5,3-4.7,6-6.7,9.2c-4,7-7,14.2-9.2,21.7
	c-1.2,4.2-2.2,8.7-3.5,13.2c-0.2,0.7-0.5,1.7-1,2.5c-0.2,0.5-0.7,0.5-1.2,1c-0.2-0.5-0.5-1-0.7-1.2
	C155.3,67.9,155.3,67.7,155.3,67.4L155.3,67.4z"/>
<path class="st2" d="M299.9,36.7c-0.2,1.7-0.5,3.5-0.7,5.2c-1,6.5-1.7,13-2.7,19.2c-0.2,1,0.5,2,1.2,2.2h0.2c0.5,0,1,0,1.5,0
	c0,1.7-0.5,3.5-1.5,5.2c-2,2.2-5.2,2.5-7.5,0.7c-0.2-0.2-0.5-0.5-0.5-0.5c-1.5-2-2.2-4.5-1.7-7c1-8,2.2-16,3.2-24c0-0.7,0.2-1,1-1
	C295.1,36.7,297.4,36.7,299.9,36.7z"/>
<path class="st2" d="M160,70.7c0.5-2.2,1-4,1.2-6c1.7-7.7,4.5-15,8-22c2.2-4.5,5.2-8.5,9-11.7c1.5-1.2,3.2-2.2,5-2.5
	c0.5,0,1.2,0,1.7,0c1.2,0,2,1.2,1.7,2.2c0,0.2-0.2,0.7-0.2,1c-0.7,1.2-1.7,2.5-2.7,3.7c-0.7,0.7-1.5,1.5-2.5,2.2
	c-4.5,3.5-8.2,8-11,13c-3,5.5-5.5,11.2-7,17.5c-0.2,1.2-0.7,2.2-1.5,3.2c-0.2,0.5-0.7,0.7-1.2,0.7C160.5,71.7,160.3,70.9,160,70.7z"
	/>
<path class="st2" d="M204.5,50.9l0.7-5.2h4.7c-0.5,4.2-1.2,8.2-1.7,12.2c-0.2,2-0.5,4-0.7,6c0,0.2-0.2,0.7-0.5,1c-2.5,1-5,1.2-7.5,1
	c-2.2-0.2-3.7-2.2-3.5-4.2v-0.2c0.2-2,0.5-4,0.7-6.2c0.7-2.7,3.2-4.7,6-4.5C203.2,50.7,203.7,50.7,204.5,50.9z M204,54.9
	c-2-0.2-2.5,0-2.7,1.7c-0.2,1-0.2,2.2-0.5,3.2c0,0.5-0.2,1-0.2,1.5c0,1,0.7,1,1.5,1c0.5,0,1,0,1-0.7C203.2,59.2,203.7,56.9,204,54.9
	z"/>
<path class="st2" d="M214.7,60.2c0.2,1.7,1.7,2.2,4.2,1c0.5,0.5,1,1.2,1.7,1.7c0.2,0.2,0.2,0.2,0.5,0.5c-2.2,2.7-6.2,3.2-9,1.5
	c-1.2-1-2-2.5-1.7-4c0.2-1.5,0.2-3.2,0.7-4.7c0.7-3.7,4.2-6,8-5.2c0.2,0,0.7,0.2,1,0.2c1.5,0.5,2.7,2,2.7,3.5c0.2,2-0.7,4-2.5,5
	c-1,0.5-1.7,0.7-2.7,0.7C216.2,60.4,215.5,60.4,214.7,60.2z M215.2,57.2c0.5,0.5,1.5,0.5,2,0c0.7-0.2,1-1,0.7-1.7
	c-0.2-0.5-0.5-0.7-1-0.7c-0.7,0-1.5,0.5-1.5,1.2C215.5,56.2,215.2,56.7,215.2,57.2L215.2,57.2z"/>
<path class="st3" d="M65.9,13.7l-0.2-0.2c-1-1.2-2-1.7-3-1.2c-1.2,0.5-2,2-1.7,3.5c0.2,1.2,0.2,2.5,0.5,3.7c-1,0.2-1.5-0.2-2-0.7
	c-1.5-1.2-2.5-3-3.5-4.7c-1-2-2-3.7-3.2-5.7c-1.2-2-3.2-3.7-5.5-4.7L48.7,0c0.7,1.5,1.2,3,2,4.2s1.5,2.2,2.2,3.2
	c1.2,1.2,3.2,1.7,4.7,1c1.7-0.7,3.2-1.7,4.5-3s2.5-2.7,3.7-4.2c0,0.7-0.2,1-0.2,1.5c-0.5,3.2-0.5,6.5,0,9.7
	C65.7,13,65.9,13.5,65.9,13.7z"/>
<path class="st2" d="M230.5,61.7c0,0.5,0,0.7-0.2,1c-0.5,2.2-1.7,3.2-3.5,3c-2-0.2-3.2-1.7-3.2-3.7s0.2-3.7,0.5-5.7
	c0.5-3.2,1-6.5,1.2-9.7c0-0.7,0.5-1,1.2-1c1.2,0,2.5,0,3.7,0c-0.2,1.5-0.5,3.2-0.5,4.7c-0.5,3-1,6.2-1.2,9.2
	C228.5,61.4,228.7,61.7,230.5,61.7z"/>
<path class="st3" d="M79.1,15.7L79.1,15.7L79.1,15.7C79.4,15.7,79.4,15.7,79.1,15.7L79.1,15.7z"/>
<path class="st3" d="M91.6,71.4L91.6,71.4L91.6,71.4L91.6,71.4z"/>
<path class="st0" d="M6,78.1L6,78.1L6,78.1C6,77.9,6,77.9,6,78.1z"/>
<path class="st5" d="M31.7,21.2l3,5.5c-0.2,0-0.2,0.2-0.5,0.2c-9.2,5-14.5,15.2-13,25.7c0.7,6,3.7,11.5,8.2,15.5
	c0.5,0.7,0.7,1.7,1.2,2.5c0.7,1.5,1.7,2.7,2.7,4c0.5,0.5,1,1.5,1,2.2c0,0.5,0.2,1,0.2,1.7c-3.7-1.2-7-3.5-9.7-6.2
	c-7.5-6.7-11-16.7-10-26.7c0.7-7.5,4.2-14.2,9.7-19.5C26.7,24.2,29,22.5,31.7,21.2z"/>
<path class="st6" d="M40.7,18c0.2,2,2,3.7,4.2,3.5c-0.2-0.2-0.5-0.5-0.7-0.5c-0.7-0.5-1.2-1-1.7-1.5c-0.7-1-0.5-2.2,0.2-3.2l0,0l0,0
	c1.5-1.5,4-2,6-0.7c1.5,1,2.7,2,3.7,3.2c1.5,1.5,2.5,3.2,3.2,5.2c-0.2,0.2-0.5,0.2-0.5,0.5c-0.5,2-2.2,3.5-4.2,3.5
	c-4.2,0.7-8.7-0.7-12-3.5c-3.2-2.7-5.2-6.7-5.7-11c-0.5-2,0-4.2,1.2-6C34.7,7.5,35,7,35,6.7l0.2-0.2l0.2-0.2c3.5-2.5,8.2-2.7,12-1
	c2.2,1.5,4.2,3.5,5.2,5.7c1,1.7,1.7,3.5,3,5.2c0.7,1.2,1.7,2.2,3,3.2c0.2,0.2,0.5,0.2,0.7,0.5c1.7,1,3,0.2,3-1.7c0-1-0.2-2-0.2-3
	c0-0.7,0-1.2,0.2-1.7c0.5-0.7,1.2-0.7,2,0c1.2,2.5,0.7,5.2-1,7.2c-0.5,0.2-1,0.5-1.5,0.7c0.7,0.2,1.5,0.7,2.2,0.7
	c0.5,0.2,1,0.5,1.2,1c1,2,1.7,4.2,2,6.5c1.2,6.7,3.2,13.2,5.7,19.5c1,2.7,2,5.2,3,8c1,2.5,1,5.2,0.2,8c-0.2,0.2-0.5,0.5-0.5,0.7
	c-1,1.2-2,2.7-3,4c-1,1-2.2,1.7-3.5,1.7s-1.7-0.2-1.5-1.7c0-0.5,0.2-0.7,0.2-1.2c1-1.5,1.7-2.7,2.5-4.2s0.7-3.2,0.2-4.7l-0.2-0.2
	l-0.2-0.7l0.2-0.2c-0.2-2.5-2.2-4.2-4.7-4.2h-0.2c-2.2,0.2-4.2,1.2-5.2,3.2c-1,1.5-2.5,2.5-4.2,2.7c-0.7,0.2-1.5,0.2-2.2,0.5h-0.5
	l-0.2-0.2l-2.7-2l0,0l2.2-1.5l1-0.5c1.7-0.7,3.5-1.5,5.2-2c0.7-0.2,1.2-0.2,2-0.5c0,0.2,0,0.2,0,0.5v0.2v-0.2c0.2,0,0.5,0,0.7,0
	c3-1.7,6.5-1.7,9.7-0.2c0.2,0,0.5,0.2,0.7,0.2c-1.5-2-3.7-3.2-6.2-3l1.7-3.2l-0.2-0.2l-2.5,2.2c0-0.2,0-0.5,0-0.7c0-2-0.2-3.7-1-5.5
	c-1-2.7-3.7-4.2-6.7-3.7c-2,0.5-3.7,1.7-5,3.5c-0.7,1.2-1.5,2.7-2.2,4.2c0-1.2,0-2.5-0.2-4c0-2.5-0.7-5-2.2-7c-1.5-2.2-4.5-3-7-1.7
	c-0.5,0.2-0.7,0.5-1,1c-1.2,1.2-2.2,3-2.5,4.7c-0.2,2-1,3.7-2.2,5c-0.5,0.5-0.5,1.2-0.2,1.7l0,0l0,0c0.2,0.5,0.7,0.7,1,1.2
	c0.2,0.2,0.5,0.5,0.5,1c0.7,4,2.2,7.5,5,10.5c0.2,0.2,0.5,0.5,1,0.5c-1.7,1-3.5,2.2-4.7,4c-0.7,1-1.2,2-2,3
	c-0.2-0.2-0.5-0.7-0.7-1.2c-2.2-5.7-3-12-1.7-18.2c0.7-4.5,2.5-9,4.7-13c0.7-1.2,1.5-2.5,2.5-3.5l2.5,1.2l0.2,0.2l0.7,0.2
	c0.2,0.2,0.2,0.5,0.5,0.5c1.7,0.7,3.5,1.2,5.5,1.5c3.5,0,6.2-3,6.5-6.2v-0.2l0.2-0.2c1-2,1-4.2,0-6.2c-0.2-0.5-0.7-1.2-1-1.7
	c0-0.2,0-0.5,0-0.5c-1-1.7-2-3.5-3-5c-1.2-1.7-3.2-3-5.5-3.5c-2.5-0.2-4.7,0.7-6,3C39.9,15.5,39.9,17,40.7,18z M64.9,40.7
	c-0.2-3.2-2.7-5.7-6-5.5c-0.2,0-0.2,0-0.5,0s-0.7,0-1,0.2s-0.2,0.7-0.2,1.2s0.5,0.2,0.7,0.2c0.7-0.2,1.2-0.2,2-0.2
	c1.7,0.2,3.2,1.2,4,2.7C64.4,39.9,64.7,40.4,64.9,40.7z"/>
<path class="st7" d="M64.2,72.2c1,1.5,1.5,3.2,1.7,4.7c0.5,3.7,0.2,7.7-1,11.5s-4.7,6-8.5,5.7c-1.5,0-2.7,0.2-4.2,0.2
	s-2.7,0-4.2-0.2c-3.2-0.5-5.5-3.2-5.2-6.5c0-3.7,1.5-7.5,4.5-10.2c2.5-2.2,5.2-3.7,8.5-4.7c0.2-0.2,0.7-0.2,1.2,0c2.2,1,5,0.7,7-0.5
	C63.7,72.4,63.9,72.2,64.2,72.2z"/>
<path class="st8" d="M58.7,68.7c-1.2,0.7-2.5,1.7-4,2.5c-1.7,1-3.7,1.5-5.7,2.2c-3.2,1.2-6.2,3-9,5.2c-0.2-1-0.2-2-0.5-3
	c-1.5-5.5,1-11.5,6-14.5c1.2-0.7,2.5-1.7,3.7-2.5c0.5,0.2,1,0.7,1.2,1c1.7,2,4.5,2.5,7,1.5c1.5-0.5,3-1.5,4.2-2.7c1.7-2,5-2.2,7-0.5
	c1.5,1.5,2,3.7,1.2,5.7c-0.2,0.5-0.5,1-0.7,1.5l-0.2,0.5l0,0l-0.2,0.2l0,0c-0.2,0.2-0.5,0.2-0.7,0.5c-2,2.2-4.5,3.7-7.5,4.5
	c-0.5,0-1,0-1.5,0l2.7-3c0.7-0.2,1.7-0.5,2.5-0.7c1.5-0.2,2.2-1.7,2.2-3c0-0.7-0.2-1.5-0.5-2c-0.7-1.7-2.2-2-3.7-0.5
	c0,1.5-0.5,3-1.5,4.2c-0.5,0.5-0.7,1.2-1.2,1.7l0,0L58.7,68.7z M47.2,64.4c0.7-0.5,1.5-0.7,2.2-1.2c0.5-0.2,0.2-0.7-0.2-1
	c-0.5,0-0.7,0-1,0.2C47.7,63.2,47.4,63.7,47.2,64.4L47.2,64.4L47.2,64.4z"/>
<path class="st9" d="M29.5,68.2c-4.5-4-7.5-9.5-8.2-15.5C19.7,42.2,25,32,34.2,27c0.2,0,0.2-0.2,0.5-0.2c0.7,0.7,1.2,1.2,2,1.7
	c0.7,0.5,1.5,1,2.2,1.5c-1.2,2.2-2.7,4.5-4,6.7c-3.2,5.5-5.5,11.7-6.5,18.2c-0.5,4-0.2,8.2,1,12C29.2,67.4,29.5,67.7,29.5,68.2z"/>
<path class="st10" d="M50.4,58.4L50.4,58.4c-2-1-2.5-1-4.5,0.7c-0.5,0.2-1,0.5-1.5,0.7c-0.7,0.2-1.5,0.5-2,0.7
	c-0.2-0.2-0.2-0.7-0.5-1c-0.2-0.5-0.7-1-1.2-1.7c0-0.5-0.2-1-0.5-1.2c-1.5-3-2.2-6.2-2.2-9.5c0-1.2,0.2-2.2,0.2-3.5
	c1.7-2.7,5.2-3.7,8.2-2.5c0-0.2-0.2-0.2-0.2-0.5c0,0-0.2,0-0.2-0.2c-1.7-0.7-3.7-1-5.5-0.2c0-0.2,0-0.5,0-0.5
	c0.5-1.5,1.2-2.7,2.5-3.7c0.2-0.2,0.7-0.5,1-0.7c1.2,0,2.2,0.5,3,1.5c0.7,1.2,1.5,2.5,1.7,3.7c0.5,2.2,0.5,4.7,0.7,7
	c0.2,1.5,0.2,3,0.5,4.5L50.4,58.4z M47.9,53.9c-0.2-1.7-0.7-3.5-1.7-4.7c-0.7-1-2-1-2.7-0.5c-0.2,0.2-0.5,0.5-0.5,0.7
	c-1.5,2.7-1.2,6,0.5,8.5c0.7,1,2,1,2.7,0.5c0.2-0.2,0.5-0.5,0.7-0.7C47.2,56.4,47.7,55.2,47.9,53.9z"/>
<path class="st11" d="M67.9,26c3.5,3.2,6.2,7.5,8,12s2.5,9.5,2,14.5c-0.2,1.5-0.5,3-0.7,4.2c-1.5-4-3-8-4.5-11.7
	c-2-5.2-3.5-10.7-4.2-16.2C68.2,27.7,67.9,26.7,67.9,26z"/>
<path class="st12" d="M49.9,51.9c-0.2-1.5-0.2-3-0.5-4.5c-0.2-2.2-0.2-4.7-0.7-7c-0.5-1.5-1-2.7-1.7-3.7c-0.5-1-1.7-1.5-3-1.5
	c-0.2,0-0.5,0-0.7,0c-3.2,0.7-5.5,3.7-5.2,7l2.2-1.7l0.2-0.2l0,0c1.7-0.7,3.7-0.7,5.5,0.2c0,0,0.2,0,0.2,0.2c0,0,0.2,0.2,0.2,0.5
	c-3-1.2-6.2,0-8.2,2.5c-0.7,0.7-1.2,1.7-1.2,2.7c0,1.5,0.2,3,0.2,4.5c0.5,2.5,1.7,5,3.2,7c0.5,0.5,0.7,1,1.2,1.7
	c0.2,0.2,0.2,0.7,0.5,1l0,0l0,0c-0.2-0.2-0.7-0.2-1-0.5c-2.5-3-4.2-6.5-5-10.5c0-0.2-0.2-0.7-0.5-1c-0.2-0.5-0.7-0.7-1-1.2
	c-0.5-0.5-0.5-1.2,0-1.7l0,0l0,0c1.2-1.2,2.2-3,2.2-5c0.2-1.7,1.2-3.5,2.5-4.7c1.7-2,5-2.2,7-0.5c0.2,0.2,0.7,0.7,1,1
	c1.2,2.2,2,4.5,2.2,7c0,1.2,0.2,2.7,0.2,4c0.7-1.5,1.2-3,2.2-4.2c1-1.7,3-3,5-3.5c2.7-0.5,5.7,1,6.7,3.7c0.7,1.7,1,3.7,1,5.5
	c0,0.2,0,0.5,0,0.7l2.5-2.2l0.2,0.2l-1.7,3.2c2.5-0.2,5,0.7,6.2,3c-0.2,0-0.5-0.2-0.7-0.2c-3-1.5-6.7-1.5-9.7,0.2
	c-0.2,0-0.5,0-0.7,0l0,0c0-0.2,0-0.2,0-0.5c-0.7,0-1.2,0.2-2,0.5c-1.7,0.7-3.5,1.5-5.2,2c-0.2,0.2-0.7,0.2-1,0.5v-0.5
	c0.2-0.2,0.7-0.5,1-0.7c1.7-1.7,4.2-3,6.7-3.5c1-0.2,2.2-0.2,3.5-0.2c0-1,0.2-2,0.2-2.7c0-2-0.2-3.7-1.2-5.5
	c-1.2-2.5-4.2-3.5-6.5-2.2c-1.2,0.2-2.2,1-3,2c-1.2,1.5-2.2,3.5-2.5,5.5C50.4,49.9,50.2,50.9,49.9,51.9z"/>
<path class="st13" d="M35,6.7c0,0.2-0.2,0.5-0.2,0.7c-1.2,1.7-1.7,4-1.2,6c0.5,4.2,2.5,8.2,5.7,11c3.2,3,7.5,4.2,12,3.5
	c2,0,4-1.5,4.2-3.5c0-0.2,0.2-0.2,0.5-0.5c0.7,2.5-0.5,5.2-3,6l0,0l0,0c-5,2-11,1.2-15.2-2.2C35,25.2,33,22,32.2,18.5
	c-1-2.7-1-5.5,0-8.2C32.5,8.7,33.7,7.5,35,6.7z"/>
<path class="st14" d="M40.4,31.5c-0.7,1.2-1.7,2.2-2.5,3.5c-2.2,4-4,8.5-4.7,13C32,54.2,32.7,60.4,35,66.2c0.2,0.5,0.5,0.7,0.7,1.2
	l-1.2,3.7c-0.5-0.5-1-1-1.2-1.5c-3.2-4.5-4.5-10-3.7-15.5c1.2-7,4-14,7.7-20c0.5-1,1.2-1.7,1.7-2.7C39.4,31,39.9,31,40.4,31.5z"/>
<path class="st15" d="M49.7,58.9c-1.2,0.7-2.5,1.7-3.7,2.5c-5,3-7.5,8.7-6,14.5c0.2,1,0.2,2,0.5,3l-2,2c-0.5,0.5-1,0.5-1.2-0.2
	c0-0.2-0.2-0.2-0.2-0.5c-1.2-4.2-1.2-8.7,0.5-12.7c1.5-3.2,4-5.5,7.2-6.7c1-0.5,1.7-1,2.5-1.5C47.7,58.4,48.7,58.4,49.7,58.9z"/>
<path class="st14" d="M40.7,18c-0.7-1-0.7-2.5,0-3.5c1.2-2,3.7-3.2,6-3c2.2,0.2,4.2,1.5,5.7,3.5c1,1.5,2,3.2,3,5c0,0.2,0,0.5,0,0.5
	c-1.2-1.5-2.2-2.7-3.5-4.2s-3.2-2.5-5.2-2.5C44.4,13.5,40.9,15,40.7,18z"/>
<path class="st16" d="M53.9,60.7c0.7-0.2,1.5-0.2,2.2-0.5c1.7-0.5,3.2-1.5,4.2-2.7c1.2-1.7,3.2-3,5.2-3.2c2.5-0.2,4.5,1.5,4.7,4v0.2
	l-0.2,0.2c-0.5-0.5-1.2-1-1.7-1.5c-2.2-1.5-5.5-1.2-7.2,1c-1.2,1.2-2.7,2.2-4.5,2.5C55.9,61.2,54.9,61.2,53.9,60.7z"/>
<path class="st17" d="M61.9,68.4l-2.7,3c0.5,0,1,0,1.5,0c3-0.7,5.5-2.2,7.5-4.5c0.2-0.2,0.5-0.5,0.7-0.5c-0.5,0.7-0.7,1.2-1.2,2
	c-1.7,2.2-4.2,3.7-7.2,4.5c-1.5,0.2-3.2,0-4.7-1c1.7-1,3.2-2.2,4.7-3C60.9,68.4,61.4,68.7,61.9,68.4z"/>
<path class="st16" d="M67.9,68.9c0,0.5-0.2,0.7-0.2,1.2c-0.2,1.2,0.2,1.7,1.5,1.7s2.5-0.7,3.5-1.7c1.2-1.2,2-2.7,3-4
	c0.2-0.2,0.5-0.5,0.5-0.7c-0.7,3.7-3.7,6.7-7.5,7.7c-1.5,0.2-3.2-0.2-4.2-1.2L67.9,68.9z"/>
<path class="st13" d="M56.2,29c0,3.5-3,6.2-6.5,6.2c-2,0-3.7-0.5-5.5-1.5c-0.2,0-0.2-0.2-0.5-0.5c1,0.2,2,0.5,3,0.7
	c3.2,0.7,6.5-0.7,8.2-3.5C55.4,30,55.7,29.5,56.2,29z"/>
<path class="st17" d="M59.9,68.2c0.2-0.5,0.7-1.2,1.2-1.7c1-1,1.7-2.7,1.5-4.2c1.5,0.2,1.7,0.7,1,1.7C62.7,65.7,61.4,67.2,59.9,68.2
	z"/>
<path class="st17" d="M58.7,68.7l1-0.7L58.7,68.7z"/>
<path class="st17" d="M68.9,66.2l0.2-0.5L68.9,66.2z"/>
<path class="st13" d="M35.5,6.5L35.5,6.5L35.5,6.5z"/>
<path class="st13" d="M56.4,28.5l-0.2,0.2L56.4,28.5z"/>
<path class="st13" d="M42.9,33l-0.2-0.2L42.9,33z"/>
<path class="st16" d="M70.9,59.4l0.2,0.2L70.9,59.4z"/>
<path class="st16" d="M53.2,60.4l0.2,0.2L53.2,60.4z"/>
<path class="st17" d="M68.9,66.4l0.2-0.2L68.9,66.4z"/>
<path class="st13" d="M49.9,51.9c0.2-1,0.7-2.2,1-3.2c0.5-2,1.2-3.7,2.5-5.5c0.7-1,1.7-1.7,3-2c0,0.2-0.2,0.5-0.2,0.7
	c-2,2-3,4.5-3,7.2c-0.2,2.5-0.2,4.7-0.2,7.2v0.5l-2.2,1.5L49.9,51.9z"/>
<path class="st18" d="M64.9,40.7c-0.2-0.5-0.5-0.7-0.7-1.2c-0.7-1.5-2.2-2.5-4-2.7c-0.7,0-1.2,0-2,0.2c-0.5,0-0.7,0.2-0.7-0.2
	c0-0.5,0-0.7,0.2-1.2c0.2-0.2,0.7-0.2,1-0.2c3.2-0.2,6,2,6.5,5C64.9,40.4,64.9,40.7,64.9,40.7z"/>
<path class="st12" d="M61.2,54.4L61.2,54.4L61.2,54.4L61.2,54.4z"/>
<path class="st19" d="M47.2,64.4c0.2-0.7,0.7-1.2,1-1.7c0.2-0.2,0.7-0.5,1-0.2c0.5,0,0.7,0.5,0.2,1C48.7,63.7,47.9,63.9,47.2,64.4
	L47.2,64.4z"/>
<path class="st19" d="M47.2,64.4L47.2,64.4L47.2,64.4z"/>
<path class="st20" d="M47.9,53.9c-0.2,1.2-0.7,2.2-1.2,3.5c-0.5,1-1.5,1.5-2.7,1c-0.2-0.2-0.5-0.2-0.7-0.7c-1.7-2.5-2-5.7-0.5-8.5
	c0.5-1,1.7-1.2,2.7-0.7c0.2,0.2,0.5,0.2,0.7,0.5C47.2,50.7,47.7,52.2,47.9,53.9z M44.9,52.4L44.9,52.4c0-0.7-0.2-1.2-0.5-2
	c-0.2-0.5-0.7-0.7-1.2-0.5c-0.2,0-0.5,0.2-0.5,0.7c-0.2,0.7-0.2,1.5-0.2,2.2c0,1,0.7,1.7,1.5,1.7C44.4,54.7,44.9,53.9,44.9,52.4
	C44.9,52.7,44.9,52.4,44.9,52.4z"/>
<path class="st16" d="M40.2,40.4L38,42.2c0-3.2,2-6.2,5.2-7c0.2,0,0.5,0,0.7,0c-0.2,0.2-0.5,0.5-1,0.7c-1.2,1-2,2.2-2.5,3.7
	C40.2,39.9,40.4,40.2,40.2,40.4L40.2,40.4L40.2,40.4z"/>
<path class="st21" d="M40.9,58.2c-1.7-2-2.7-4.5-3.2-7c-0.2-1.5-0.2-3-0.2-4.5c0-1,0.5-2,1.2-2.7c0,1.2-0.2,2.2-0.2,3.5
	c0,3.2,0.7,6.5,2.2,9.5C40.4,57.2,40.7,57.7,40.9,58.2z"/>
<path class="st6" d="M52.7,56.4c0-2.5,0-4.7,0.2-7.2c0-2.7,1.2-5.2,3-7.2c0.2-0.2,0.2-0.5,0.2-0.7c2.5-1.2,5.5-0.2,6.5,2.2
	c0.7,1.7,1.2,3.5,1.2,5.5c0,1-0.2,2-0.2,2.7c-1.2,0-2.2,0-3.5,0.2c-2.5,0.5-4.7,1.7-6.7,3.5C53.4,55.9,53.2,56.2,52.7,56.4z"/>
<path class="st10" d="M40.2,40.4L40.2,40.4L40.2,40.4z"/>
<path class="st22" d="M44.9,52.4C44.9,52.4,44.9,52.7,44.9,52.4c0,1.2-0.5,2.2-1.2,2.2c-0.5,0-1.2-0.7-1.5-1.7c0-0.7,0-1.5,0.2-2.2
	c0-0.5,0.5-0.7,1-0.7c0.2,0,0.5,0.2,0.7,0.5C44.7,51.2,44.9,51.7,44.9,52.4L44.9,52.4z"/>
</svg>
